<svg xmlns="http://www.w3.org/2000/svg" xmlns:xlink="http://www.w3.org/1999/xlink" width="1080" zoomAndPan="magnify" viewBox="0 0 810 1012.49997" height="1350" preserveAspectRatio="xMidYMid meet" version="1.0"><path fill="#5b4632" d="M 181.1875 808.214844 L 181.1875 827.382812 L 628.824219 827.382812 L 628.824219 808.214844 C 628.824219 793.996094 617.261719 782.441406 603.050781 782.441406 L 206.960938 782.441406 C 192.75 782.433594 181.1875 793.996094 181.1875 808.214844 Z M 181.1875 808.214844 " fill-opacity="1" fill-rule="nonzero"/><path fill="#5b4632" d="M 267.820312 442.785156 C 278.125 452.378906 289.390625 460.667969 300.28125 468.679688 C 327.863281 488.96875 353.917969 508.140625 359.632812 544.265625 C 360.726562 551.207031 360.636719 556.078125 360.328125 572.179688 C 360.152344 581.683594 359.886719 595.3125 359.730469 615.953125 C 359.539062 641.839844 359.625 663.125 359.730469 677.359375 C 359.757812 680.4375 358.070312 683.273438 355.359375 684.734375 L 286.210938 721.878906 L 523.800781 721.878906 L 454.652344 684.734375 C 451.9375 683.273438 450.253906 680.4375 450.28125 677.359375 C 450.386719 663.117188 450.472656 641.839844 450.28125 615.953125 C 450.121094 595.3125 449.867188 581.675781 449.683594 572.179688 C 449.375 556.078125 449.285156 551.207031 450.378906 544.265625 C 456.09375 508.140625 482.148438 488.96875 509.730469 468.679688 C 520.621094 460.667969 531.886719 452.390625 542.191406 442.785156 C 589.246094 398.953125 603.664062 338.390625 619.957031 210.4375 C 628.75 141.457031 631.835938 70.699219 629.15625 0 L 180.855469 0 C 178.167969 70.699219 181.253906 141.457031 190.046875 210.4375 C 206.347656 338.390625 220.753906 398.953125 267.820312 442.785156 Z M 356.984375 166.167969 L 405.003906 68.867188 L 453.027344 166.167969 L 560.40625 181.769531 L 482.707031 257.503906 L 501.046875 364.445312 L 405.003906 313.953125 L 308.964844 364.445312 L 327.304688 257.503906 L 249.605469 181.769531 Z M 356.984375 166.167969 " fill-opacity="1" fill-rule="nonzero"/><path fill="#5b4632" d="M 553.9375 738.46875 L 256.066406 738.46875 C 251.621094 742.121094 245.597656 748.640625 243.484375 758.320312 C 242.945312 760.792969 242.746094 763.3125 242.796875 765.84375 L 567.207031 765.84375 C 567.25 763.304688 567.050781 760.792969 566.519531 758.320312 C 564.414062 748.640625 558.382812 742.128906 553.9375 738.46875 Z M 553.9375 738.46875 " fill-opacity="1" fill-rule="nonzero"/><path fill="#5b4632" d="M 180.988281 266.015625 C 158.160156 257.097656 121.386719 236.898438 100.203125 194.726562 C 90.5625 175.53125 85.535156 154.738281 85.246094 132.921875 C 85.121094 123.605469 88.671875 114.8125 95.242188 108.160156 C 101.902344 101.414062 110.820312 97.699219 120.359375 97.699219 L 164.257812 97.699219 C 163.816406 85.664062 163.570312 73.609375 163.453125 61.542969 L 74.6875 61.542969 C 66.574219 61.542969 59.492188 66.617188 57.058594 74.175781 C 50.167969 95.527344 37.351562 151.566406 67.023438 210.671875 C 100.121094 276.566406 162.988281 299.59375 187.824219 306.335938 C 185.433594 293.820312 183.179688 280.414062 180.988281 266.015625 Z M 180.988281 266.015625 " fill-opacity="1" fill-rule="nonzero"/><path fill="#5b4632" d="M 144.027344 843.964844 L 111.527344 1012 L 698.484375 1012 L 665.984375 843.964844 Z M 476.425781 958.753906 L 333.585938 958.753906 L 333.585938 906.003906 L 476.425781 906.003906 Z M 476.425781 958.753906 " fill-opacity="1" fill-rule="nonzero"/><path fill="#5b4632" d="M 752.953125 74.175781 C 750.511719 66.617188 743.429688 61.542969 735.324219 61.542969 L 646.550781 61.542969 C 646.441406 73.609375 646.195312 85.664062 645.746094 97.699219 L 689.644531 97.699219 C 699.183594 97.699219 708.109375 101.414062 714.761719 108.160156 C 721.332031 114.8125 724.871094 123.605469 724.757812 132.921875 C 724.464844 154.738281 719.429688 175.53125 709.800781 194.726562 C 688.613281 236.898438 651.84375 257.097656 629.015625 266.015625 C 626.832031 280.40625 624.566406 293.820312 622.179688 306.335938 C 647.726562 299.335938 710.074219 276.175781 742.980469 210.671875 C 772.660156 151.566406 759.835938 95.527344 752.953125 74.175781 Z M 752.953125 74.175781 " fill-opacity="1" fill-rule="nonzero"/></svg>