<svg xmlns="http://www.w3.org/2000/svg" xmlns:xlink="http://www.w3.org/1999/xlink" width="1920" zoomAndPan="magnify" viewBox="0 0 1440 809.999993" height="1080" preserveAspectRatio="xMidYMid meet" version="1.0"><defs><filter x="0%" y="0%" width="100%" height="100%" id="d21c94f06a"><feColorMatrix values="0 0 0 0 1 0 0 0 0 1 0 0 0 0 1 0 0 0 1 0" color-interpolation-filters="sRGB"/></filter><clipPath id="276e0acb07"><path d="M 969.699219 203 L 1371.699219 203 L 1371.699219 659.792969 L 969.699219 659.792969 Z M 969.699219 203 " clip-rule="nonzero"/></clipPath><clipPath id="2ddbc0ccb0"><path d="M 56.722656 540 L 458.722656 540 L 458.722656 644.476562 L 56.722656 644.476562 Z M 56.722656 540 " clip-rule="nonzero"/></clipPath><clipPath id="29eb94bebf"><path d="M 56.722656 539 L 458.722656 539 L 458.722656 644.476562 L 56.722656 644.476562 Z M 56.722656 539 " clip-rule="nonzero"/></clipPath><mask id="18718e071b"><g filter="url(#d21c94f06a)"><rect x="-144" width="1728" fill="#000000" y="-80.999999" height="971.999992" fill-opacity="0.5"/></g></mask><clipPath id="704c47ffc8"><path d="M 0.722656 1 L 402.722656 1 L 402.722656 105.476562 L 0.722656 105.476562 Z M 0.722656 1 " clip-rule="nonzero"/></clipPath><clipPath id="009d8d552f"><rect x="0" width="403" y="0" height="106"/></clipPath><clipPath id="968ab30edb"><path d="M 56.722656 495 L 458.722656 495 L 458.722656 586 L 56.722656 586 Z M 56.722656 495 " clip-rule="nonzero"/></clipPath><clipPath id="09f40ca3ec"><path d="M 56.722656 494 L 458.722656 494 L 458.722656 587 L 56.722656 587 Z M 56.722656 494 " clip-rule="nonzero"/></clipPath><mask id="25d723cd63"><g filter="url(#d21c94f06a)"><rect x="-144" width="1728" fill="#000000" y="-80.999999" height="971.999992" fill-opacity="0.35"/></g></mask><clipPath id="319b9d5fdb"><path d="M 0.722656 1 L 402.722656 1 L 402.722656 92 L 0.722656 92 Z M 0.722656 1 " clip-rule="nonzero"/></clipPath><clipPath id="8ed6a852a2"><rect x="0" width="403" y="0" height="93"/></clipPath><mask id="0cb985d5ba"><g filter="url(#d21c94f06a)"><rect x="-144" width="1728" fill="#000000" y="-80.999999" height="971.999992" fill-opacity="0.07"/></g></mask><clipPath id="1c7d55d6b2"><rect x="0" width="323" y="0" height="73"/></clipPath><clipPath id="7419413aad"><path d="M 56.722656 562 L 458.722656 562 L 458.722656 644.476562 L 56.722656 644.476562 Z M 56.722656 562 " clip-rule="nonzero"/></clipPath><mask id="71fc93b4cd"><g filter="url(#d21c94f06a)"><rect x="-144" width="1728" fill="#000000" y="-80.999999" height="971.999992" fill-opacity="0.1"/></g></mask><clipPath id="d135a5a3a2"><path d="M 191 24 L 402.722656 24 L 402.722656 79 L 191 79 Z M 191 24 " clip-rule="nonzero"/></clipPath><clipPath id="8aca4941a7"><path d="M 0.722656 0.320312 L 182 0.320312 L 182 66 L 0.722656 66 Z M 0.722656 0.320312 " clip-rule="nonzero"/></clipPath><clipPath id="1b4c0606f2"><path d="M 0.722656 20 L 116 20 L 116 44 L 0.722656 44 Z M 0.722656 20 " clip-rule="nonzero"/></clipPath><clipPath id="0e023281c4"><rect x="0" width="403" y="0" height="83"/></clipPath><mask id="524e84a289"><g filter="url(#d21c94f06a)"><rect x="-144" width="1728" fill="#000000" y="-80.999999" height="971.999992" fill-opacity="0.08"/></g></mask><clipPath id="88f88e308c"><path d="M 1 1 L 309 1 L 309 117.238281 L 1 117.238281 Z M 1 1 " clip-rule="nonzero"/></clipPath><clipPath id="63a86aa7d8"><rect x="0" width="310" y="0" height="118"/></clipPath><mask id="50309180d8"><g filter="url(#d21c94f06a)"><rect x="-144" width="1728" fill="#000000" y="-80.999999" height="971.999992" fill-opacity="0.03"/></g></mask><clipPath id="b35b6ff94b"><path d="M 1 0.160156 L 269.839844 0.160156 L 269.839844 76.960938 L 1 76.960938 Z M 1 0.160156 " clip-rule="nonzero"/></clipPath><clipPath id="e1946b7b3c"><rect x="0" width="270" y="0" height="77"/></clipPath><mask id="d6f850e44f"><g filter="url(#d21c94f06a)"><rect x="-144" width="1728" fill="#000000" y="-80.999999" height="971.999992" fill-opacity="0.05"/></g></mask><clipPath id="c212092d67"><path d="M 0.160156 0.398438 L 21 0.398438 L 21 10 L 0.160156 10 Z M 0.160156 0.398438 " clip-rule="nonzero"/></clipPath><clipPath id="e076e56b91"><rect x="0" width="22" y="0" height="11"/></clipPath><clipPath id="e26a0b1a92"><path d="M 207 231.226562 L 302 231.226562 L 302 393 L 207 393 Z M 207 231.226562 " clip-rule="nonzero"/></clipPath><mask id="bb411589e1"><g filter="url(#d21c94f06a)"><rect x="-144" width="1728" fill="#000000" y="-80.999999" height="971.999992" fill-opacity="0.06"/></g></mask><clipPath id="9954744654"><rect x="0" width="53" y="0" height="150"/></clipPath><mask id="d1759f0eb8"><g filter="url(#d21c94f06a)"><rect x="-144" width="1728" fill="#000000" y="-80.999999" height="971.999992" fill-opacity="0.1"/></g></mask><clipPath id="41ca69f48f"><path d="M 1 1 L 56.601562 1 L 56.601562 139 L 1 139 Z M 1 1 " clip-rule="nonzero"/></clipPath><clipPath id="586a9c0897"><rect x="0" width="57" y="0" height="140"/></clipPath><mask id="8fb4ad3e9e"><g filter="url(#d21c94f06a)"><rect x="-144" width="1728" fill="#000000" y="-80.999999" height="971.999992" fill-opacity="0.35"/></g></mask><clipPath id="bcd3fb4bdd"><rect x="0" width="9" y="0" height="77"/></clipPath><mask id="3d2fcd8a79"><g filter="url(#d21c94f06a)"><rect x="-144" width="1728" fill="#000000" y="-80.999999" height="971.999992" fill-opacity="0.35"/></g></mask><clipPath id="5a1b7fbfe5"><path d="M 0.441406 0.0390625 L 10.28125 0.0390625 L 10.28125 16 L 0.441406 16 Z M 0.441406 0.0390625 " clip-rule="nonzero"/></clipPath><clipPath id="316b1757b9"><rect x="0" width="11" y="0" height="17"/></clipPath><clipPath id="13da31eece"><path d="M 606 330.195312 L 803 330.195312 L 803 443 L 606 443 Z M 606 330.195312 " clip-rule="nonzero"/></clipPath></defs><path fill="#ffc9d6" d="M 1001.265625 390.246094 C 1000.214844 454.816406 999.160156 519.382812 997.519531 584.414062 C 1046.285156 608.957031 1101.140625 619.242188 1155.632812 622.476562 C 1187.734375 624.378906 1220.046875 623.929688 1251.90625 619.527344 C 1270.929688 616.902344 1289.761719 612.867188 1308.195312 607.476562 C 1317.164062 604.851562 1326.140625 601.863281 1334.058594 596.902344 C 1334.058594 596.902344 1336.878906 393.957031 1334.003906 396.417969 C 1324.605469 392.480469 1314.191406 391.925781 1304.011719 391.425781 C 1207.125 386.628906 1109.855469 381.84375 1001.265625 390.246094 " fill-opacity="1" fill-rule="nonzero"/><path fill="#ffe3e9" d="M 1001.585938 392.535156 C 1001.699219 368.953125 1077.289062 350.191406 1170.425781 350.628906 C 1263.558594 351.070312 1338.96875 370.546875 1338.859375 394.132812 C 1338.746094 417.714844 1263.15625 436.476562 1170.019531 436.035156 C 1076.886719 435.597656 1001.476562 416.121094 1001.585938 392.535156 " fill-opacity="1" fill-rule="nonzero"/><path fill="#ffb357" d="M 1180.28125 244.539062 C 1180.019531 248.746094 1179.542969 252.949219 1178.960938 257.125 C 1179.332031 252.921875 1179.765625 248.722656 1180.28125 244.539062 Z M 1198.214844 255.363281 C 1196.121094 239.0625 1193.019531 222.988281 1189.980469 206.847656 C 1189.046875 201.863281 1188.75 196.789062 1187.816406 191.808594 C 1186.960938 187.257812 1185.453125 180.800781 1180.886719 178.535156 C 1178.996094 177.597656 1177 178.308594 1176.253906 180.316406 C 1167.292969 204.503906 1151.84375 225.851562 1144.5625 250.71875 C 1137.265625 275.644531 1136.464844 302.773438 1142.71875 327.992188 C 1146.265625 342.3125 1152.097656 356.019531 1159.4375 368.792969 C 1161.589844 372.554688 1167.480469 369.277344 1165.3125 365.503906 C 1164.925781 364.828125 1164.554688 364.144531 1164.175781 363.464844 C 1164.972656 363.5625 1165.804688 363.414062 1166.546875 363.046875 C 1167.085938 363.324219 1167.707031 363.496094 1168.414062 363.511719 C 1168.972656 363.523438 1169.554688 363.398438 1170.109375 363.167969 C 1169.011719 364.261719 1167.871094 365.308594 1166.671875 366.292969 C 1165.238281 367.46875 1165.367188 369.894531 1166.582031 371.160156 C 1167.941406 372.570312 1170.023438 372.453125 1171.449219 371.25 C 1180.871094 363.269531 1187.398438 352.257812 1192.070312 340.960938 C 1196.753906 329.648438 1199.757812 317.527344 1200.605469 305.300781 C 1201.769531 288.621094 1200.34375 271.910156 1198.214844 255.363281 " fill-opacity="1" fill-rule="nonzero"/><path fill="#f7c17e" d="M 1165.519531 350.21875 C 1165.457031 351.507812 1165.386719 352.796875 1165.320312 354.082031 C 1164.871094 353.007812 1164.441406 351.914062 1164.035156 350.820312 C 1164.597656 350.71875 1165.09375 350.515625 1165.519531 350.21875 Z M 1185.605469 286.515625 C 1184.617188 279.101562 1182.664062 272.074219 1179.691406 265.210938 C 1179.234375 264.144531 1177.570312 263.433594 1176.46875 263.832031 C 1171.40625 265.640625 1169.554688 271.824219 1167.765625 276.367188 C 1165.078125 283.171875 1161.6875 289.679688 1159.015625 296.496094 C 1156.1875 303.730469 1153.910156 311.109375 1153.082031 318.855469 C 1152.300781 326.191406 1152.796875 333.65625 1154.292969 340.871094 C 1156.003906 349.105469 1159.066406 357.054688 1163.035156 364.453125 C 1164.230469 366.683594 1166.765625 366.40625 1168.15625 365.027344 C 1169.195312 365.234375 1170.324219 364.890625 1171.078125 363.6875 C 1172.90625 360.757812 1175.203125 358.164062 1177.253906 355.390625 C 1179.300781 352.613281 1180.882812 349.59375 1182.171875 346.398438 C 1184.757812 340.003906 1185.695312 333.128906 1186.082031 326.285156 C 1186.835938 313.035156 1187.367188 299.710938 1185.605469 286.515625 " fill-opacity="1" fill-rule="nonzero"/><path fill="#b08b54" d="M 1171.035156 367.304688 C 1171.308594 359.089844 1171.722656 350.886719 1171.875 342.675781 C 1171.964844 337.757812 1164.316406 337.609375 1164.242188 342.53125 C 1164.109375 350.746094 1163.722656 358.949219 1163.4375 367.160156 C 1163.296875 371.140625 1163.191406 375.125 1163.160156 379.105469 C 1163.148438 381.15625 1163.148438 383.207031 1163.179688 385.253906 C 1163.210938 387.46875 1163.148438 389.875 1163.828125 391.996094 C 1164.789062 395.003906 1169.625 395.640625 1170.445312 392.117188 C 1171.367188 388.128906 1170.738281 383.667969 1170.761719 379.589844 C 1170.789062 375.492188 1170.894531 371.394531 1171.035156 367.304688 " fill-opacity="1" fill-rule="nonzero"/><g clip-path="url(#276e0acb07)"><path fill="#d69731" d="M 1188.878906 659.792969 C 1169.90625 659.792969 1151.628906 658.882812 1134.734375 657.785156 C 1106.625 655.953125 1076.652344 653.183594 1047.957031 645.355469 C 1016.363281 636.738281 990.28125 623.007812 970.433594 604.550781 L 969.699219 603.871094 L 969.710938 602.871094 C 970.890625 468.386719 972.042969 335.871094 973.195312 203.355469 L 977.734375 203.394531 C 976.585938 335.578125 975.433594 467.769531 974.257812 601.902344 C 993.472656 619.511719 1018.664062 632.65625 1049.148438 640.96875 C 1077.460938 648.691406 1107.15625 651.4375 1135.03125 653.246094 C 1171.558594 655.625 1214.59375 657.132812 1256.847656 650.320312 C 1299.578125 643.429688 1337.660156 628.398438 1367.0625 606.824219 C 1362.027344 501.183594 1361.492188 392.058594 1360.972656 286.519531 C 1360.839844 259.554688 1360.703125 231.675781 1360.488281 204.453125 L 1365.03125 204.417969 C 1365.242188 231.648438 1365.378906 259.53125 1365.511719 286.5 C 1366.03125 392.394531 1366.574219 501.894531 1371.65625 607.820312 L 1371.714844 609.03125 L 1370.742188 609.75 C 1340.628906 632.144531 1301.496094 647.726562 1257.570312 654.808594 C 1234.480469 658.527344 1211.203125 659.792969 1188.878906 659.792969 " fill-opacity="1" fill-rule="nonzero"/></g><path fill="#d69731" d="M 976.988281 203.734375 C 977.15625 226.582031 1054.359375 250.464844 1169.167969 249.644531 C 1283.914062 248.796875 1360.816406 223.761719 1360.652344 200.914062 C 1360.5625 188.980469 1340.378906 177.152344 1305.269531 168.457031 C 1268.714844 159.40625 1220.175781 154.652344 1168.472656 155.007812 C 1053.726562 155.851562 976.824219 180.882812 976.988281 203.734375 Z M 1163.363281 254.207031 C 1056.035156 254.207031 972.660156 232.335938 972.445312 203.765625 C 972.238281 174.683594 1058.328125 151.269531 1168.441406 150.464844 C 1220.449219 150.054688 1269.449219 154.902344 1306.355469 164.042969 C 1344.195312 173.414062 1365.089844 186.492188 1365.1875 200.878906 C 1365.402344 229.960938 1279.3125 253.375 1169.199219 254.1875 C 1167.25 254.199219 1165.292969 254.207031 1163.363281 254.207031 " fill-opacity="1" fill-rule="nonzero"/><path fill="#ffb53d" d="M 1022.191406 327.601562 C 1016.054688 326.6875 1012.566406 321.125 1011.183594 315.527344 C 1009.640625 309.257812 1009.90625 302.855469 1010.476562 296.480469 C 1010.59375 295.15625 1009.890625 294.292969 1008.972656 293.921875 C 1007.414062 292.671875 1004.328125 293.179688 1003.839844 295.832031 C 1002.792969 301.566406 1001.015625 307.296875 997.773438 312.191406 C 994.4375 317.214844 989.949219 320.652344 984.863281 323.746094 C 982.660156 325.082031 982.789062 328.730469 985.75 329.007812 C 992.714844 329.664062 995.984375 334.539062 997.335938 340.972656 C 998.773438 347.808594 998.332031 354.835938 998.371094 361.765625 C 998.386719 365.230469 1003.40625 365.882812 1003.824219 362.300781 C 1004.660156 355.226562 1002.90625 346.917969 1006.421875 340.402344 C 1009.554688 334.601562 1016.8125 334.808594 1022.402344 333.304688 C 1025.492188 332.472656 1025.53125 328.09375 1022.191406 327.601562 " fill-opacity="1" fill-rule="nonzero"/><path fill="#ffb53d" d="M 1326.011719 309.433594 C 1315.527344 305.425781 1313.433594 294.503906 1312.792969 284.480469 C 1313.128906 282.890625 1313.449219 281.296875 1313.765625 279.730469 C 1314.148438 277.886719 1312.371094 276.09375 1310.636719 275.925781 C 1308.644531 275.730469 1307.160156 277.195312 1306.832031 279.054688 C 1305.738281 285.351562 1304.84375 292.214844 1301.167969 297.617188 C 1299.273438 300.40625 1296.746094 302.496094 1293.628906 303.789062 C 1290.148438 305.234375 1286.332031 305.699219 1282.683594 306.5625 C 1279.722656 307.261719 1279.519531 312.050781 1282.894531 312.195312 C 1288.953125 312.460938 1294.652344 314.746094 1297.691406 320.113281 C 1300.582031 325.230469 1301.304688 331.320312 1301.574219 337.128906 C 1300.992188 341.402344 1301.050781 345.773438 1301.679688 349.996094 C 1302.121094 352.96875 1307.007812 352.921875 1307.078125 349.792969 C 1307.152344 346.105469 1307.289062 341.988281 1307.175781 337.785156 C 1308.898438 327.398438 1315.03125 317.519531 1325.488281 314.828125 C 1328.0625 314.160156 1328.753906 310.484375 1326.011719 309.433594 " fill-opacity="1" fill-rule="nonzero"/><path fill="#ffb53d" d="M 1284.484375 413.441406 C 1278.558594 408.492188 1272.070312 402.1875 1271.382812 394.421875 C 1271.40625 394.257812 1271.429688 394.101562 1271.453125 393.9375 C 1272.027344 392.152344 1272.550781 390.355469 1273.082031 388.5625 C 1273.605469 386.785156 1272.933594 384.820312 1271.105469 384.125 C 1269.484375 383.503906 1267.195312 384.316406 1266.671875 386.101562 C 1264.949219 392 1263.472656 398.730469 1259.070312 403.304688 C 1253.976562 408.597656 1246.257812 408.390625 1240.128906 411.820312 C 1237.964844 413.03125 1238.042969 417.03125 1241.019531 417.078125 C 1244.890625 417.140625 1249.054688 417.078125 1252.714844 418.511719 C 1256.53125 420.007812 1258.03125 423.253906 1258.789062 427.082031 C 1260.0625 433.558594 1259.925781 440.296875 1259.398438 446.957031 C 1259.078125 450.019531 1258.808594 453.089844 1258.523438 456.15625 C 1258.160156 460.011719 1263.914062 460.53125 1264.472656 456.734375 C 1265.035156 452.902344 1265.453125 449.035156 1265.667969 445.15625 C 1266.414062 439.003906 1267.511719 432.886719 1269.753906 427.140625 C 1270.839844 424.359375 1272.460938 422.519531 1275.023438 421.390625 C 1277.902344 420.121094 1281.03125 419.292969 1284.007812 418.292969 C 1286.175781 417.566406 1285.933594 414.65625 1284.484375 413.441406 " fill-opacity="1" fill-rule="nonzero"/><path fill="#ffb53d" d="M 1319.378906 568.847656 C 1316.054688 563.46875 1308.234375 564.933594 1304.183594 560.246094 C 1299.960938 555.347656 1299.996094 548.664062 1299.960938 542.371094 C 1300.148438 540.644531 1300.273438 538.90625 1300.355469 537.199219 C 1300.578125 532.652344 1293.472656 531.957031 1293.3125 536.511719 C 1293.078125 543.234375 1292.472656 550.460938 1288.4375 556.101562 C 1283.460938 563.050781 1275.316406 564.597656 1267.667969 567.03125 C 1264.585938 568.015625 1265.835938 572.648438 1268.664062 572.949219 C 1282.320312 574.414062 1286.636719 588.371094 1287.71875 600.785156 C 1287.734375 603.582031 1287.882812 606.375 1288.0625 609.097656 C 1288.300781 612.71875 1294.621094 612.53125 1294.507812 608.859375 C 1294.195312 599.816406 1293.894531 589.519531 1299.558594 581.875 C 1303.660156 576.339844 1310.574219 575.101562 1316.980469 573.414062 C 1318.773438 572.945312 1320.578125 570.789062 1319.378906 568.847656 " fill-opacity="1" fill-rule="nonzero"/><path fill="#ffb53d" d="M 1031.734375 549.148438 C 1029.421875 548.113281 1027.070312 547.15625 1025.042969 545.605469 C 1022.96875 544.019531 1021.683594 541.90625 1020.816406 539.464844 C 1018.367188 532.507812 1019.292969 525 1019.660156 517.789062 C 1020.085938 515.863281 1020.445312 513.925781 1020.773438 512 C 1021.402344 508.332031 1015.621094 507.777344 1015.015625 511.441406 C 1013.746094 519.128906 1011.960938 527.132812 1006.996094 533.355469 C 1004.476562 536.519531 1001.144531 538.949219 997.417969 540.484375 C 995.644531 541.214844 993.789062 541.765625 991.898438 542.066406 C 989.75 542.402344 987.886719 542.679688 986.015625 543.875 C 984.484375 544.847656 984.984375 547.089844 986.144531 548.050781 C 989.253906 550.609375 993.59375 550.523438 996.660156 553.113281 C 999.425781 555.445312 1000.886719 559.160156 1001.96875 562.519531 C 1004.738281 571.125 1004.355469 580.453125 1005.136719 589.363281 C 1005.40625 592.382812 1010.476562 592.226562 1010.519531 589.15625 C 1010.621094 581.628906 1010.167969 573.324219 1013.570312 566.375 C 1016.71875 559.949219 1024.425781 555.8125 1031.21875 554.453125 C 1033.960938 553.90625 1034.207031 550.25 1031.734375 549.148438 " fill-opacity="1" fill-rule="nonzero"/><path fill="#ffb53d" d="M 1073.050781 514.660156 C 1069.210938 515.253906 1066.15625 512.507812 1064.605469 509.207031 C 1062.933594 505.644531 1063.421875 501.675781 1063.109375 497.835938 C 1063.46875 496.847656 1063.804688 495.851562 1064.097656 494.839844 C 1064.640625 492.9375 1063.945312 490.859375 1061.988281 490.113281 C 1060.308594 489.46875 1057.761719 490.296875 1057.265625 492.21875 C 1055.984375 497.171875 1054.019531 501.902344 1050.734375 505.871094 C 1047.582031 509.683594 1043.328125 512.101562 1038.628906 513.484375 C 1036.972656 513.96875 1035.699219 515.347656 1036.019531 517.1875 C 1036.308594 518.84375 1038.027344 520.171875 1039.726562 519.804688 C 1044.621094 518.734375 1050.183594 520.488281 1051.878906 525.582031 C 1052.949219 528.808594 1052.632812 532.332031 1052.296875 535.652344 C 1051.917969 539.414062 1051.578125 543.15625 1052.144531 546.917969 C 1052.554688 549.621094 1057.085938 550.386719 1057.808594 547.472656 C 1059.347656 541.253906 1058.578125 534.375 1061.265625 528.472656 C 1063.601562 523.347656 1069.046875 521.800781 1074.019531 520.257812 C 1077.40625 519.214844 1076.78125 514.078125 1073.050781 514.660156 " fill-opacity="1" fill-rule="nonzero"/><g clip-path="url(#2ddbc0ccb0)"><path fill="#ffffff" d="M 458.652344 540.144531 L 458.652344 594.152344 C 458.652344 595.824219 458.445312 597.46875 458.039062 599.089844 C 457.820312 599.972656 457.535156 600.835938 457.1875 601.679688 C 456.316406 603.84375 455.058594 605.757812 453.425781 607.421875 C 451.269531 609.5625 448.929688 611.484375 446.414062 613.1875 C 445.339844 613.90625 444.261719 614.636719 443.015625 615.335938 C 439.886719 617.207031 436.660156 618.890625 433.335938 620.390625 C 431.808594 621.089844 430.183594 621.800781 428.464844 622.542969 C 424.882812 624.003906 420.9375 625.46875 416.417969 626.84375 C 413.417969 627.800781 410.203125 628.757812 406.742188 629.683594 C 395.75 632.578125 384.636719 634.886719 373.402344 636.609375 C 368.863281 637.328125 364.078125 638.007812 359.046875 638.652344 C 347.882812 640.074219 335.484375 641.277344 321.683594 642.203125 C 315.410156 642.617188 308.847656 642.976562 301.996094 643.277344 C 288.433594 643.867188 273.699219 644.191406 257.6875 644.210938 C 173.40625 644.34375 122.527344 633.457031 93.050781 622.984375 C 90.992188 622.265625 89.042969 621.550781 87.199219 620.832031 C 80.984375 618.445312 74.960938 615.640625 69.132812 612.421875 C 67.433594 611.476562 65.90625 610.574219 64.613281 609.734375 L 64.078125 609.378906 C 62.472656 608.253906 61.121094 606.875 60.023438 605.25 C 59.445312 604.414062 58.949219 603.539062 58.527344 602.617188 C 57.453125 600.246094 56.871094 597.761719 56.785156 595.164062 C 56.785156 594.871094 56.785156 594.582031 56.785156 594.292969 L 56.785156 540.144531 Z M 458.652344 540.144531 " fill-opacity="1" fill-rule="nonzero"/></g><g clip-path="url(#29eb94bebf)"><g mask="url(#18718e071b)"><g transform="matrix(1, 0, 0, 1, 56, 539)"><g clip-path="url(#009d8d552f)"><g clip-path="url(#704c47ffc8)"><path fill="#131313" d="M 402.652344 1.144531 L 402.652344 55.152344 C 402.652344 56.824219 402.445312 58.46875 402.039062 60.089844 C 401.820312 60.972656 401.535156 61.835938 401.1875 62.679688 C 400.316406 64.84375 399.058594 66.757812 397.425781 68.421875 C 395.269531 70.5625 392.929688 72.484375 390.414062 74.1875 C 389.339844 74.90625 388.261719 75.636719 387.015625 76.335938 C 383.886719 78.207031 380.660156 79.890625 377.335938 81.390625 C 375.808594 82.089844 374.183594 82.800781 372.464844 83.542969 C 368.882812 85.003906 364.9375 86.46875 360.417969 87.84375 C 357.417969 88.800781 354.203125 89.757812 350.742188 90.683594 C 339.75 93.578125 328.636719 95.886719 317.402344 97.609375 C 312.863281 98.328125 308.078125 99.007812 303.046875 99.652344 C 291.882812 101.074219 279.484375 102.277344 265.683594 103.203125 C 259.410156 103.617188 252.847656 103.976562 245.996094 104.277344 C 232.433594 104.867188 217.699219 105.191406 201.6875 105.210938 C 117.40625 105.34375 66.527344 94.457031 37.050781 83.984375 C 34.992188 83.265625 33.042969 82.550781 31.199219 81.832031 C 24.984375 79.445312 18.960938 76.640625 13.132812 73.421875 C 11.433594 72.476562 9.90625 71.574219 8.613281 70.734375 L 8.078125 70.378906 C 6.472656 69.253906 5.121094 67.875 4.023438 66.25 C 3.445312 65.414062 2.949219 64.539062 2.527344 63.617188 C 1.453125 61.246094 0.871094 58.761719 0.785156 56.164062 C 0.785156 55.871094 0.785156 55.582031 0.785156 55.292969 L 0.785156 1.144531 Z M 402.652344 1.144531 " fill-opacity="1" fill-rule="nonzero"/></g></g></g></g></g><g clip-path="url(#968ab30edb)"><path fill="#ffffff" d="M 458.996094 540.144531 C 458.992188 541.042969 458.878906 541.929688 458.652344 542.800781 C 452.488281 566.460938 364.960938 585.171875 257.890625 585.171875 C 198.601562 585.171875 145.316406 579.429688 108.503906 570.289062 C 76.359375 562.308594 56.785156 551.703125 56.785156 540.144531 C 56.785156 529.9375 71.9375 520.515625 97.457031 512.988281 C 134.214844 502.128906 192.375 495.117188 257.890625 495.117188 C 274.484375 495.117188 290.617188 495.566406 306.046875 496.417969 C 350.742188 498.867188 389.566406 504.675781 416.902344 512.546875 C 443.292969 520.195312 458.996094 529.753906 458.996094 540.144531 Z M 458.996094 540.144531 " fill-opacity="1" fill-rule="nonzero"/></g><g clip-path="url(#09f40ca3ec)"><g mask="url(#25d723cd63)"><g transform="matrix(1, 0, 0, 1, 56, 494)"><g clip-path="url(#8ed6a852a2)"><g clip-path="url(#319b9d5fdb)"><path fill="#131313" d="M 402.996094 46.144531 C 402.992188 47.042969 402.878906 47.929688 402.652344 48.800781 C 396.488281 72.460938 308.960938 91.171875 201.890625 91.171875 C 142.601562 91.171875 89.316406 85.429688 52.503906 76.289062 C 20.359375 68.308594 0.785156 57.703125 0.785156 46.144531 C 0.785156 35.9375 15.9375 26.515625 41.457031 18.988281 C 78.214844 8.128906 136.375 1.117188 201.890625 1.117188 C 218.484375 1.117188 234.617188 1.566406 250.046875 2.417969 C 294.742188 4.867188 333.566406 10.675781 360.902344 18.546875 C 387.292969 26.195312 402.996094 35.753906 402.996094 46.144531 Z M 402.996094 46.144531 " fill-opacity="1" fill-rule="nonzero"/></g></g></g></g></g><g mask="url(#0cb985d5ba)"><g transform="matrix(1, 0, 0, 1, 96, 494)"><g clip-path="url(#1c7d55d6b2)"><path fill="#131313" d="M 321.183594 31.648438 C 321.179688 32.445312 321.089844 33.234375 320.902344 34.011719 C 319.925781 38.316406 316.324219 42.347656 310.484375 46.144531 C 287.371094 61.199219 229.308594 71.867188 161.320312 71.867188 C 93.332031 71.867188 35.28125 61.1875 12.160156 46.144531 C 6.332031 42.347656 2.726562 38.273438 1.738281 34.011719 L 1.457031 34.011719 L 1.457031 18.988281 C 38.214844 8.128906 96.375 1.117188 161.890625 1.117188 C 178.484375 1.117188 194.617188 1.566406 210.046875 2.417969 C 254.742188 4.867188 293.566406 10.675781 320.902344 18.546875 L 320.902344 29.25 C 321.089844 30.039062 321.183594 30.835938 321.183594 31.648438 Z M 321.183594 31.648438 " fill-opacity="1" fill-rule="nonzero"/></g></g></g><g clip-path="url(#7419413aad)"><g mask="url(#71fc93b4cd)"><g transform="matrix(1, 0, 0, 1, 56, 562)"><g clip-path="url(#0e023281c4)"><path fill="#131313" d="M 360.324219 51.648438 C 352.503906 51.648438 344.460938 51.421875 336.199219 51.207031 C 327.941406 50.992188 319.445312 50.746094 310.746094 50.660156 C 302.046875 50.574219 293.128906 50.660156 284.03125 51.15625 C 279.492188 51.402344 274.902344 51.746094 270.289062 52.230469 C 265.675781 52.714844 261.027344 53.304688 256.394531 54.089844 C 247.015625 55.621094 237.835938 57.929688 228.851562 61.015625 C 228.207031 61.238281 227.582031 61.5 226.96875 61.800781 C 226.242188 62.152344 225.605469 62.628906 225.066406 63.230469 C 224.816406 63.542969 224.621094 63.882812 224.476562 64.253906 C 224.332031 64.625 224.273438 65.007812 224.292969 65.402344 C 224.371094 66.171875 224.683594 66.832031 225.226562 67.382812 C 225.703125 67.878906 226.242188 68.292969 226.839844 68.628906 C 227.417969 68.953125 228.011719 69.230469 228.625 69.46875 C 229.234375 69.699219 229.855469 69.898438 230.488281 70.0625 L 231.453125 70.277344 C 231.617188 70.277344 231.789062 70.339844 231.949219 70.371094 L 232.433594 70.449219 C 237.070312 71.164062 241.691406 71.761719 246.296875 72.242188 C 255.511719 73.265625 264.578125 74.007812 273.578125 74.652344 C 282.582031 75.296875 291.324219 75.898438 299.9375 76.492188 L 303.164062 76.695312 C 308.183594 76.066406 312.96875 75.382812 317.519531 74.652344 C 311.929688 74.292969 306.253906 73.914062 300.496094 73.511719 C 291.894531 72.921875 283.097656 72.308594 274.171875 71.664062 C 265.246094 71.019531 256.15625 70.277344 247.058594 69.285156 C 242.507812 68.777344 237.949219 68.1875 233.390625 67.511719 L 233.015625 67.457031 L 232.660156 67.394531 L 231.949219 67.230469 C 231.488281 67.113281 231.039062 66.96875 230.59375 66.800781 C 229.847656 66.550781 229.183594 66.160156 228.605469 65.628906 C 228.457031 65.507812 228.375 65.355469 228.355469 65.167969 C 228.347656 65.109375 228.347656 65.050781 228.355469 64.996094 C 228.394531 64.921875 228.4375 64.847656 228.484375 64.78125 C 228.679688 64.578125 228.898438 64.421875 229.152344 64.308594 C 229.574219 64.105469 230.007812 63.929688 230.453125 63.78125 C 239.152344 60.789062 248.039062 58.546875 257.113281 57.046875 C 261.632812 56.261719 266.160156 55.660156 270.675781 55.1875 C 275.191406 54.714844 279.699219 54.347656 284.160156 54.113281 C 302.054688 53.089844 319.402344 53.554688 335.941406 53.84375 C 344.222656 54.003906 352.320312 54.121094 360.195312 54.078125 C 368.066406 54.035156 375.710938 53.863281 383.109375 53.597656 L 387.003906 53.445312 C 388.230469 52.703125 389.359375 51.972656 390.402344 51.292969 C 387.992188 51.378906 385.558594 51.457031 383.101562 51.519531 C 375.75 51.636719 368.160156 51.679688 360.324219 51.648438 Z M 360.324219 51.648438 " fill-opacity="1" fill-rule="nonzero"/><path fill="#131313" d="M 312.359375 56.5625 L 302.980469 56.382812 C 299.832031 56.304688 296.625 56.242188 293.378906 56.273438 C 290.128906 56.304688 286.808594 56.433594 283.460938 56.777344 L 282.214844 56.90625 L 280.839844 57.082031 C 280.054688 57.1875 279.269531 57.339844 278.484375 57.46875 L 277.3125 57.660156 L 276.761719 57.769531 L 276.234375 57.886719 L 274.085938 58.359375 L 272.0625 58.855469 L 267.824219 59.875 L 271.277344 60.789062 L 274.664062 61.660156 L 275.742188 61.929688 C 276.105469 62.027344 276.449219 62.113281 276.816406 62.199219 L 279.160156 62.703125 C 279.535156 62.78125 279.945312 62.875 280.332031 62.941406 L 280.988281 63.058594 L 282.226562 63.273438 C 283.859375 63.566406 285.453125 63.8125 287.152344 64.027344 C 290.441406 64.46875 293.710938 64.800781 296.957031 65.101562 C 300.207031 65.402344 303.410156 65.617188 306.636719 65.855469 L 311.402344 66.199219 L 316.144531 66.488281 L 320.84375 66.769531 C 322.402344 66.867188 323.953125 66.921875 325.5 66.996094 L 330.125 67.199219 L 332.414062 67.308594 L 334.695312 67.382812 C 337.738281 67.46875 340.738281 67.578125 343.71875 67.652344 L 350.730469 67.78125 C 354.171875 66.855469 357.386719 65.898438 360.410156 64.941406 C 357.902344 64.941406 355.355469 64.941406 352.785156 64.867188 L 344.019531 64.695312 L 335.070312 64.402344 L 332.800781 64.328125 L 330.523438 64.222656 L 325.941406 64.007812 C 324.402344 63.917969 322.855469 63.867188 321.304688 63.769531 L 316.640625 63.488281 L 311.9375 63.199219 L 307.28125 62.832031 C 304.121094 62.597656 300.917969 62.371094 297.722656 62.082031 C 294.527344 61.789062 291.324219 61.46875 288.152344 61.003906 C 286.558594 60.78125 284.976562 60.554688 283.410156 60.273438 L 282.234375 60.070312 L 281.675781 59.972656 L 282.753906 59.84375 C 283.148438 59.78125 283.539062 59.757812 283.925781 59.714844 C 287.054688 59.382812 290.203125 59.261719 293.355469 59.210938 C 296.507812 59.15625 299.65625 59.210938 302.796875 59.273438 L 312.15625 59.445312 L 347.792969 60.210938 C 356.398438 60.382812 364.65625 60.488281 372.527344 60.542969 C 374.25 59.84375 375.875 59.132812 377.402344 58.390625 C 368.128906 58.210938 358.289062 57.941406 347.988281 57.617188 C 336.632812 57.304688 324.726562 56.898438 312.359375 56.5625 Z M 312.359375 56.5625 " fill-opacity="1" fill-rule="nonzero"/><path fill="#131313" d="M 368.496094 38.484375 C 358.152344 38.808594 347.429688 39.089844 336.4375 39.476562 C 314.457031 40.238281 293.421875 41.347656 274.429688 43.519531 C 264.921875 44.59375 255.921875 45.90625 247.542969 47.402344 C 245.457031 47.789062 243.402344 48.164062 241.390625 48.550781 C 239.378906 48.9375 237.421875 49.359375 235.496094 49.789062 C 231.660156 50.648438 227.96875 51.574219 224.550781 52.59375 C 221.128906 53.617188 217.882812 54.746094 214.871094 55.820312 C 213.40625 56.386719 211.972656 57.023438 210.570312 57.734375 C 209.222656 58.410156 208 59.261719 206.902344 60.296875 C 206.40625 60.777344 205.988281 61.320312 205.644531 61.917969 C 205.324219 62.46875 205.109375 63.058594 205 63.683594 C 204.800781 64.832031 204.964844 65.925781 205.492188 66.964844 C 205.96875 67.917969 206.601562 68.753906 207.398438 69.46875 C 208.15625 70.160156 208.992188 70.742188 209.902344 71.210938 C 211.511719 72.015625 213.203125 72.59375 214.96875 72.941406 C 216.257812 73.214844 217.558594 73.40625 218.871094 73.523438 C 221.023438 73.71875 222.097656 73.683594 222.183594 73.523438 C 222.269531 73.363281 221.183594 73.09375 219.183594 72.640625 C 218.195312 72.40625 216.96875 72.136719 215.59375 71.726562 C 214.082031 71.296875 212.648438 70.691406 211.289062 69.910156 C 210.574219 69.476562 209.925781 68.960938 209.34375 68.359375 C 208.75 67.769531 208.292969 67.085938 207.976562 66.308594 C 207.640625 65.539062 207.5625 64.75 207.742188 63.929688 C 207.839844 63.5 208.011719 63.101562 208.257812 62.738281 C 208.519531 62.308594 208.839844 61.929688 209.214844 61.597656 C 210.132812 60.796875 211.144531 60.136719 212.246094 59.617188 C 213.453125 59.027344 214.816406 58.542969 216.269531 57.960938 C 217.722656 57.382812 219.214844 56.886719 220.785156 56.390625 C 222.355469 55.898438 224.011719 55.402344 225.65625 54.941406 C 233.101562 52.9375 240.632812 51.320312 248.242188 50.089844 C 256.5 48.671875 265.449219 47.421875 274.804688 46.390625 C 293.625 44.316406 314.488281 43.230469 336.417969 42.464844 C 347.386719 42.078125 358.109375 41.753906 368.464844 41.390625 C 378.820312 41.023438 388.84375 40.507812 398.371094 39.882812 L 401.136719 39.691406 C 401.480469 38.847656 401.765625 37.984375 401.984375 37.097656 L 398.230469 37.304688 C 388.800781 37.785156 378.832031 38.164062 368.496094 38.484375 Z M 368.496094 38.484375 " fill-opacity="1" fill-rule="nonzero"/><g clip-path="url(#d135a5a3a2)"><path fill="#131313" d="M 397.769531 25.460938 C 389.457031 25.398438 380.5625 25.195312 371.183594 25.066406 C 361.808594 24.9375 351.902344 24.890625 341.632812 25.28125 C 331.363281 25.667969 320.78125 26.355469 309.960938 27.03125 C 299.140625 27.710938 288.582031 28.398438 278.386719 29.074219 C 268.191406 29.753906 258.265625 30.484375 248.886719 31.871094 C 244.199219 32.550781 239.648438 33.398438 235.292969 34.421875 C 231.097656 35.414062 226.972656 36.640625 222.914062 38.097656 C 215.855469 40.515625 209.308594 43.914062 203.265625 48.292969 C 198.050781 52.15625 194.265625 56.433594 192.449219 60.585938 C 192.007812 61.566406 191.671875 62.582031 191.4375 63.628906 L 191.351562 63.996094 L 191.351562 64.371094 C 191.351562 64.609375 191.265625 64.855469 191.242188 65.09375 C 191.1875 65.5625 191.160156 66.035156 191.167969 66.511719 C 191.175781 68.21875 191.53125 69.851562 192.246094 71.40625 C 192.824219 72.707031 193.601562 73.875 194.578125 74.910156 C 195.328125 75.734375 196.171875 76.449219 197.105469 77.0625 C 197.308594 77.179688 197.480469 77.308594 197.664062 77.417969 L 198.179688 77.683594 C 198.320312 77.773438 198.460938 77.851562 198.609375 77.921875 L 198.988281 78.09375 L 199.664062 78.394531 C 199.464844 78.261719 199.257812 78.144531 199.039062 78.039062 L 198.6875 77.847656 L 198.277344 77.589844 L 197.804688 77.289062 C 197.621094 77.179688 197.472656 77.050781 197.289062 76.921875 C 196.425781 76.300781 195.65625 75.585938 194.976562 74.769531 C 194.105469 73.722656 193.429688 72.5625 192.953125 71.285156 C 192.382812 69.761719 192.140625 68.183594 192.234375 66.554688 C 192.234375 66.113281 192.320312 65.671875 192.375 65.210938 C 192.375 64.984375 192.46875 64.757812 192.523438 64.523438 C 192.578125 64.285156 192.523438 64.296875 192.597656 64.179688 L 192.695312 63.832031 C 192.960938 62.839844 193.320312 61.882812 193.769531 60.960938 C 195.71875 57.070312 199.515625 53.078125 204.71875 49.476562 C 210.71875 45.40625 217.171875 42.273438 224.078125 40.078125 C 232.34375 37.398438 240.792969 35.542969 249.425781 34.507812 C 258.621094 33.28125 268.40625 32.667969 278.601562 32.066406 C 288.796875 31.464844 299.367188 30.816406 310.1875 30.140625 C 321.003906 29.464844 331.566406 28.765625 341.71875 28.378906 C 351.871094 27.988281 361.65625 28 371.011719 28.097656 C 380.367188 28.195312 389.296875 28.367188 397.652344 28.355469 L 402.695312 28.355469 L 402.695312 25.601562 Z M 397.769531 25.460938 " fill-opacity="1" fill-rule="nonzero"/></g><path fill="#131313" d="M 223.226562 79.0625 C 223.226562 79.375 228.054688 79.910156 236.929688 80.621094 C 239.617188 80.847656 242.671875 81.074219 246.070312 81.320312 C 252.929688 81.035156 259.496094 80.675781 265.761719 80.246094 C 254.015625 79.664062 244.328125 79.234375 237.1875 78.988281 C 228.25 78.683594 223.28125 78.683594 223.226562 79.0625 Z M 223.226562 79.0625 " fill-opacity="1" fill-rule="nonzero"/><g clip-path="url(#8aca4941a7)"><path fill="#131313" d="M 179.4375 55.035156 C 178.027344 53.734375 176.480469 52.632812 174.789062 51.722656 C 171.351562 49.820312 167.800781 48.164062 164.132812 46.757812 C 160.433594 45.304688 156.660156 44.015625 152.925781 42.796875 C 149.195312 41.582031 145.507812 40.421875 141.851562 39.25 L 130.964844 35.808594 L 120.289062 32.484375 L 109.824219 29.257812 C 96.003906 25.054688 82.777344 21.183594 70.289062 17.71875 C 57.804688 14.257812 46.070312 11.191406 35.265625 8.558594 C 24.457031 5.921875 14.625 3.683594 5.914062 1.890625 C 4.164062 1.511719 2.453125 1.167969 0.785156 0.8125 L 0.785156 2.609375 L 5.226562 3.597656 C 13.832031 5.492188 23.507812 7.824219 34.265625 10.515625 C 45.019531 13.203125 56.589844 16.3125 68.980469 19.816406 C 81.367188 23.324219 94.507812 27.195312 108.265625 31.410156 L 118.683594 34.636719 L 126.0625 36.957031 C 119.609375 35.5625 113.15625 34.378906 106.824219 33.292969 C 99.585938 32.042969 92.488281 30.96875 85.5625 29.96875 C 71.722656 27.96875 58.601562 26.238281 46.40625 24.332031 L 44.136719 23.976562 L 41.878906 23.613281 L 37.4375 22.882812 L 33.132812 22.128906 L 30.984375 21.753906 L 28.832031 21.355469 C 23.230469 20.277344 17.886719 19.203125 12.789062 18.128906 C 8.628906 17.238281 4.628906 16.367188 0.785156 15.515625 L 0.785156 17.664062 C 4.371094 18.503906 8.089844 19.363281 11.9375 20.246094 C 17.066406 21.398438 22.476562 22.570312 28.167969 23.644531 L 30.316406 24.054688 L 32.46875 24.453125 L 36.867188 25.246094 L 41.351562 26 L 43.628906 26.386719 L 45.933594 26.753906 C 58.222656 28.730469 71.386719 30.507812 85.152344 32.527344 C 92.035156 33.527344 99.070312 34.613281 106.210938 35.839844 C 113.351562 37.066406 120.589844 38.441406 127.867188 40.066406 C 131.492188 40.875 135.097656 41.746094 138.546875 42.789062 C 141.882812 43.746094 145.109375 44.992188 148.226562 46.519531 C 148.613281 46.703125 148.949219 46.894531 149.300781 47.089844 C 149.65625 47.28125 150 47.476562 150.378906 47.679688 C 150.984375 48.011719 151.558594 48.390625 152.097656 48.820312 C 152.519531 49.1875 152.722656 49.476562 152.722656 49.703125 C 152.722656 49.929688 152.636719 50.144531 152.3125 50.359375 C 151.820312 50.632812 151.296875 50.820312 150.742188 50.917969 C 149.988281 51.078125 149.222656 51.183594 148.453125 51.242188 L 147.183594 51.316406 L 139.976562 51.316406 C 139.011719 51.316406 138.03125 51.316406 137.054688 51.261719 L 134.148438 51.1875 L 132.699219 51.1875 C 132.214844 51.1875 131.71875 51.1875 131.234375 51.132812 L 125.429688 50.863281 L 119.640625 50.476562 C 111.941406 49.910156 104.347656 49.152344 96.863281 48.207031 C 89.390625 47.25 82.054688 46.175781 74.894531 44.980469 C 67.730469 43.789062 60.707031 42.59375 53.878906 41.347656 C 40.210938 38.863281 27.242188 36.347656 15.058594 34.097656 C 10.175781 33.207031 5.429688 32.34375 0.816406 31.550781 L 0.816406 32.324219 C 0.816406 32.613281 0.816406 32.90625 0.816406 33.195312 C 5.25 34.035156 9.804688 34.910156 14.488281 35.828125 C 26.605469 38.207031 39.535156 40.851562 53.203125 43.453125 C 60.042969 44.765625 67.097656 46.035156 74.3125 47.261719 C 81.527344 48.488281 88.972656 49.59375 96.550781 50.605469 C 104.132812 51.617188 111.886719 52.402344 119.761719 53.003906 L 125.6875 53.402344 L 131.632812 53.683594 L 133.128906 53.746094 L 134.621094 53.746094 L 137.613281 53.8125 C 138.613281 53.8125 139.613281 53.875 140.613281 53.875 L 148.140625 53.875 C 148.6875 53.875 149.214844 53.875 149.765625 53.789062 C 150.851562 53.710938 151.925781 53.558594 152.992188 53.328125 C 154.042969 53.140625 155.03125 52.78125 155.960938 52.25 C 156.171875 52.109375 156.367188 51.953125 156.550781 51.777344 L 156.808594 51.519531 C 156.878906 51.425781 156.945312 51.332031 157.003906 51.230469 C 157.066406 51.136719 157.121094 51.035156 157.164062 50.929688 L 157.261719 50.617188 C 157.292969 50.402344 157.292969 50.1875 157.261719 49.972656 C 157.203125 49.5 157.035156 49.074219 156.753906 48.691406 C 156.464844 48.292969 156.125 47.933594 155.746094 47.617188 C 155.003906 47.015625 154.21875 46.484375 153.390625 46.015625 C 153.035156 45.800781 152.679688 45.59375 152.3125 45.390625 C 155.605469 46.464844 158.851562 47.605469 161.992188 48.84375 C 165.386719 50.144531 168.671875 51.675781 171.855469 53.433594 C 173.199219 54.148438 174.433594 55.023438 175.554688 56.058594 C 175.96875 56.449219 176.304688 56.898438 176.566406 57.402344 C 176.769531 57.8125 176.832031 58.242188 176.746094 58.691406 C 176.609375 59.519531 175.832031 60.21875 174.597656 60.789062 C 173.097656 61.394531 171.550781 61.8125 169.949219 62.039062 C 168.09375 62.320312 166.226562 62.5 164.347656 62.574219 L 161.335938 62.574219 L 158.28125 62.652344 C 154.203125 62.738281 150.132812 62.777344 146.074219 62.769531 C 137.96875 62.769531 129.945312 62.609375 121.996094 62.394531 C 114.050781 62.175781 106.242188 61.910156 98.585938 61.660156 L 87.21875 61.285156 L 76.066406 60.960938 C 61.429688 60.425781 47.523438 59.8125 34.488281 59.039062 L 31.261719 58.832031 C 33.113281 59.550781 35.0625 60.265625 37.113281 60.984375 C 49.523438 61.824219 62.6875 62.523438 76.472656 63.136719 L 87.617188 63.609375 L 99.003906 64.058594 C 106.671875 64.359375 114.5 64.671875 122.480469 64.921875 C 130.460938 65.167969 138.613281 65.359375 146.808594 65.382812 C 150.914062 65.382812 155.042969 65.347656 159.1875 65.273438 L 162.292969 65.199219 L 165.433594 65.199219 C 167.597656 65.113281 169.746094 64.90625 171.886719 64.574219 C 173.9375 64.292969 175.921875 63.75 177.832031 62.953125 C 178.691406 62.585938 179.464844 62.085938 180.15625 61.457031 C 180.769531 60.90625 181.164062 60.230469 181.339844 59.425781 C 181.472656 58.636719 181.367188 57.882812 181.015625 57.167969 C 180.617188 56.363281 180.089844 55.652344 179.4375 55.035156 Z M 179.4375 55.035156 " fill-opacity="1" fill-rule="nonzero"/></g><path fill="#131313" d="M 41.8125 53.316406 C 43.039062 53.378906 44.265625 53.445312 45.511719 53.464844 C 46.761719 53.488281 48.019531 53.464844 49.277344 53.464844 C 49.902344 53.464844 50.535156 53.402344 51.160156 53.335938 L 51.902344 53.273438 L 52.707031 53.164062 L 54.308594 52.917969 C 55.320312 52.734375 56.257812 52.542969 57.300781 52.335938 L 58.0625 52.175781 L 58.34375 52.175781 L 58.277344 52.175781 L 57.957031 51.984375 L 56.707031 51.113281 C 55.878906 50.605469 54.933594 50.113281 54.019531 49.628906 L 53.332031 49.261719 C 53.097656 49.128906 52.855469 49.003906 52.609375 48.894531 L 51.621094 48.464844 C 51.050781 48.207031 50.449219 47.992188 49.847656 47.765625 C 49.246094 47.542969 48.632812 47.335938 48.019531 47.132812 C 45.519531 46.332031 42.980469 45.675781 40.40625 45.164062 C 37.824219 44.648438 35.222656 44.238281 32.628906 43.882812 C 30.039062 43.53125 27.46875 43.238281 24.960938 42.96875 L 17.433594 42.152344 C 12.476562 41.636719 7.59375 41.078125 2.796875 40.636719 L 2.582031 40.636719 C 3.003906 41.558594 3.5 42.4375 4.078125 43.273438 L 17.324219 44.710938 L 24.789062 45.539062 C 27.296875 45.820312 29.78125 46.109375 32.253906 46.445312 C 37 47.003906 41.660156 47.976562 46.234375 49.359375 C 46.75 49.542969 47.308594 49.703125 47.78125 49.894531 C 48.253906 50.089844 48.792969 50.273438 49.253906 50.488281 L 49.847656 50.746094 L 49.726562 50.746094 C 49.222656 50.800781 48.652344 50.820312 48.160156 50.851562 C 47.082031 50.851562 46.007812 50.851562 44.933594 50.851562 C 43.855469 50.851562 42.707031 50.789062 41.578125 50.714844 C 39.320312 50.574219 37.027344 50.371094 34.726562 50.144531 C 30.117188 49.71875 25.613281 49.289062 21.21875 48.851562 C 16.824219 48.414062 12.464844 47.933594 8.140625 47.410156 L 8.679688 47.765625 C 10.003906 48.605469 11.496094 49.507812 13.195312 50.457031 C 15.796875 50.757812 18.441406 51.050781 21.121094 51.335938 C 25.539062 51.824219 30.0625 52.289062 34.695312 52.734375 C 37.007812 52.929688 39.371094 53.15625 41.8125 53.316406 Z M 41.8125 53.316406 " fill-opacity="1" fill-rule="nonzero"/><g clip-path="url(#1b4c0606f2)"><path fill="#131313" d="M 75.914062 35.390625 L 97.015625 38.839844 C 100.242188 39.367188 103.1875 39.917969 105.929688 40.539062 L 106.941406 40.777344 L 107.4375 40.90625 L 107.757812 40.980469 L 108.953125 41.304688 C 109.757812 41.53125 110.585938 41.796875 111.414062 42.109375 L 111.136719 42.109375 L 110.8125 42.175781 L 110.125 42.269531 C 109.652344 42.335938 109.167969 42.390625 108.660156 42.421875 L 105.058594 42.421875 C 102.863281 42.371094 100.679688 42.175781 98.511719 41.832031 C 96.714844 41.550781 95.371094 41.226562 94.464844 41.011719 L 93.101562 40.660156 L 93.421875 40.789062 L 94.414062 41.121094 C 95.304688 41.390625 96.640625 41.777344 98.445312 42.195312 C 100.675781 42.652344 102.925781 42.953125 105.199219 43.097656 L 106.222656 43.152344 L 109.984375 43.152344 C 110.964844 43.152344 111.878906 43.035156 112.855469 42.9375 L 114.339844 42.765625 L 115.113281 42.667969 L 115.511719 42.617188 L 115.8125 42.617188 C 115.8125 42.617188 115.890625 42.617188 115.890625 42.617188 L 113.738281 41.746094 L 112.664062 41.304688 L 112.082031 41.089844 L 111.46875 40.863281 C 110.652344 40.5625 109.714844 40.269531 108.757812 39.96875 L 107.554688 39.625 L 106.480469 39.335938 C 103.628906 38.582031 100.554688 37.9375 97.347656 37.3125 C 90.894531 36.085938 83.90625 34.753906 76.324219 33.355469 C 61.183594 30.558594 43.933594 27.503906 25.585938 24.484375 C 17.078125 23.074219 8.785156 21.71875 0.851562 20.449219 L 0.851562 23.042969 C 8.636719 24.3125 16.734375 25.625 25.046875 27 Z M 75.914062 35.390625 " fill-opacity="1" fill-rule="nonzero"/></g></g></g></g></g><path fill="#fdedd4" d="M 411.710938 519.464844 C 411.710938 520.097656 411.648438 520.730469 411.523438 521.363281 C 411.402344 521.996094 411.214844 522.625 410.96875 523.257812 C 410.722656 523.886719 410.414062 524.515625 410.042969 525.140625 C 409.675781 525.769531 409.246094 526.394531 408.753906 527.015625 C 408.261719 527.636719 407.710938 528.253906 407.101562 528.867188 C 406.488281 529.480469 405.816406 530.09375 405.085938 530.699219 C 404.355469 531.304688 403.566406 531.90625 402.71875 532.503906 C 401.871094 533.097656 400.964844 533.691406 400 534.273438 C 399.039062 534.859375 398.015625 535.4375 396.941406 536.011719 C 395.863281 536.585938 394.734375 537.148438 393.546875 537.707031 C 392.359375 538.265625 391.121094 538.816406 389.824219 539.363281 C 388.53125 539.90625 387.183594 540.441406 385.785156 540.964844 C 384.386719 541.492188 382.9375 542.011719 381.4375 542.519531 C 379.941406 543.027344 378.390625 543.527344 376.792969 544.015625 C 375.195312 544.507812 373.554688 544.984375 371.863281 545.457031 C 370.171875 545.925781 368.4375 546.382812 366.65625 546.832031 C 364.875 547.28125 363.054688 547.714844 361.1875 548.140625 C 359.324219 548.566406 357.417969 548.980469 355.472656 549.382812 C 353.527344 549.785156 351.542969 550.171875 349.519531 550.550781 C 347.5 550.929688 345.441406 551.292969 343.347656 551.644531 C 341.253906 551.996094 339.128906 552.335938 336.96875 552.660156 C 334.808594 552.988281 332.621094 553.300781 330.402344 553.597656 C 328.179688 553.894531 325.933594 554.179688 323.65625 554.453125 C 321.382812 554.722656 319.082031 554.980469 316.753906 555.222656 C 314.429688 555.464844 312.082031 555.691406 309.710938 555.90625 C 307.339844 556.117188 304.949219 556.316406 302.542969 556.5 C 300.132812 556.683594 297.707031 556.855469 295.265625 557.007812 C 292.824219 557.160156 290.367188 557.300781 287.898438 557.425781 C 285.429688 557.546875 282.949219 557.65625 280.460938 557.75 C 277.96875 557.84375 275.472656 557.917969 272.96875 557.980469 C 270.460938 558.042969 267.953125 558.089844 265.4375 558.121094 C 262.925781 558.152344 260.410156 558.167969 257.890625 558.167969 C 255.375 558.167969 252.859375 558.152344 250.34375 558.121094 C 247.828125 558.089844 245.320312 558.042969 242.8125 557.980469 C 240.308594 557.917969 237.8125 557.84375 235.320312 557.75 C 232.832031 557.65625 230.351562 557.546875 227.882812 557.425781 C 225.414062 557.300781 222.957031 557.160156 220.515625 557.007812 C 218.074219 556.855469 215.648438 556.683594 213.238281 556.5 C 210.832031 556.316406 208.441406 556.117188 206.070312 555.90625 C 203.699219 555.691406 201.351562 555.464844 199.027344 555.222656 C 196.703125 554.980469 194.402344 554.722656 192.125 554.453125 C 189.847656 554.179688 187.601562 553.894531 185.382812 553.597656 C 183.160156 553.300781 180.972656 552.988281 178.8125 552.660156 C 176.652344 552.335938 174.527344 551.996094 172.433594 551.644531 C 170.339844 551.292969 168.285156 550.929688 166.261719 550.550781 C 164.238281 550.171875 162.253906 549.785156 160.308594 549.382812 C 158.363281 548.980469 156.457031 548.566406 154.59375 548.140625 C 152.726562 547.714844 150.90625 547.28125 149.125 546.832031 C 147.34375 546.382812 145.609375 545.925781 143.917969 545.457031 C 142.226562 544.984375 140.585938 544.507812 138.988281 544.015625 C 137.390625 543.527344 135.84375 543.027344 134.34375 542.519531 C 132.84375 542.011719 131.394531 541.492188 129.996094 540.964844 C 128.597656 540.441406 127.25 539.90625 125.957031 539.363281 C 124.664062 538.816406 123.421875 538.265625 122.234375 537.707031 C 121.046875 537.148438 119.917969 536.585938 118.839844 536.011719 C 117.765625 535.4375 116.746094 534.859375 115.78125 534.273438 C 114.816406 533.691406 113.910156 533.097656 113.0625 532.503906 C 112.214844 531.90625 111.425781 531.304688 110.695312 530.699219 C 109.964844 530.09375 109.292969 529.480469 108.683594 528.867188 C 108.070312 528.253906 107.519531 527.636719 107.027344 527.015625 C 106.535156 526.394531 106.105469 525.769531 105.738281 525.140625 C 105.367188 524.515625 105.058594 523.886719 104.8125 523.257812 C 104.566406 522.625 104.382812 521.996094 104.257812 521.363281 C 104.132812 520.730469 104.074219 520.097656 104.074219 519.464844 C 104.074219 518.828125 104.132812 518.195312 104.257812 517.5625 C 104.382812 516.929688 104.566406 516.300781 104.8125 515.667969 C 105.058594 515.039062 105.367188 514.410156 105.738281 513.785156 C 106.105469 513.15625 106.535156 512.535156 107.027344 511.914062 C 107.519531 511.289062 108.070312 510.671875 108.683594 510.058594 C 109.292969 509.445312 109.964844 508.832031 110.695312 508.226562 C 111.425781 507.621094 112.214844 507.019531 113.0625 506.425781 C 113.910156 505.828125 114.816406 505.238281 115.78125 504.652344 C 116.746094 504.066406 117.765625 503.488281 118.839844 502.914062 C 119.917969 502.34375 121.046875 501.777344 122.234375 501.21875 C 123.421875 500.660156 124.664062 500.109375 125.957031 499.566406 C 127.25 499.023438 128.597656 498.488281 129.996094 497.960938 C 131.394531 497.433594 132.84375 496.914062 134.34375 496.40625 C 135.84375 495.898438 137.390625 495.398438 138.988281 494.910156 C 140.585938 494.417969 142.226562 493.941406 143.917969 493.46875 C 145.609375 493 147.34375 492.542969 149.125 492.09375 C 150.90625 491.648438 152.726562 491.210938 154.59375 490.785156 C 156.457031 490.359375 158.363281 489.945312 160.308594 489.542969 C 162.253906 489.140625 164.238281 488.753906 166.261719 488.375 C 168.28125 487.996094 170.339844 487.632812 172.433594 487.28125 C 174.527344 486.929688 176.652344 486.589844 178.8125 486.265625 C 180.972656 485.9375 183.160156 485.628906 185.382812 485.328125 C 187.601562 485.03125 189.847656 484.746094 192.125 484.472656 C 194.402344 484.203125 196.703125 483.945312 199.027344 483.703125 C 201.351562 483.460938 203.699219 483.234375 206.070312 483.019531 C 208.441406 482.808594 210.832031 482.609375 213.238281 482.425781 C 215.648438 482.242188 218.074219 482.074219 220.515625 481.917969 C 222.957031 481.765625 225.414062 481.625 227.882812 481.503906 C 230.351562 481.378906 232.832031 481.269531 235.320312 481.175781 C 237.8125 481.085938 240.308594 481.007812 242.8125 480.945312 C 245.320312 480.882812 247.828125 480.835938 250.34375 480.804688 C 252.859375 480.773438 255.375 480.757812 257.890625 480.757812 C 260.410156 480.757812 262.925781 480.773438 265.4375 480.804688 C 267.953125 480.835938 270.460938 480.882812 272.96875 480.945312 C 275.472656 481.007812 277.96875 481.085938 280.460938 481.175781 C 282.949219 481.269531 285.429688 481.378906 287.898438 481.503906 C 290.367188 481.625 292.824219 481.765625 295.265625 481.917969 C 297.707031 482.074219 300.132812 482.242188 302.542969 482.425781 C 304.949219 482.609375 307.339844 482.808594 309.710938 483.019531 C 312.082031 483.234375 314.429688 483.460938 316.753906 483.703125 C 319.082031 483.945312 321.382812 484.203125 323.65625 484.472656 C 325.933594 484.746094 328.179688 485.03125 330.402344 485.328125 C 332.621094 485.628906 334.808594 485.9375 336.96875 486.265625 C 339.128906 486.589844 341.253906 486.929688 343.347656 487.28125 C 345.441406 487.632812 347.5 487.996094 349.519531 488.375 C 351.542969 488.753906 353.527344 489.140625 355.472656 489.542969 C 357.417969 489.945312 359.324219 490.359375 361.1875 490.785156 C 363.054688 491.210938 364.875 491.648438 366.65625 492.09375 C 368.4375 492.542969 370.171875 493 371.863281 493.46875 C 373.554688 493.941406 375.195312 494.417969 376.792969 494.910156 C 378.390625 495.398438 379.941406 495.898438 381.4375 496.40625 C 382.9375 496.914062 384.386719 497.433594 385.785156 497.960938 C 387.183594 498.488281 388.53125 499.023438 389.824219 499.566406 C 391.121094 500.109375 392.359375 500.660156 393.546875 501.21875 C 394.734375 501.777344 395.863281 502.34375 396.941406 502.914062 C 398.015625 503.488281 399.039062 504.066406 400 504.652344 C 400.964844 505.238281 401.871094 505.828125 402.71875 506.425781 C 403.566406 507.019531 404.355469 507.621094 405.085938 508.226562 C 405.816406 508.832031 406.488281 509.445312 407.101562 510.058594 C 407.710938 510.671875 408.261719 511.289062 408.753906 511.914062 C 409.246094 512.535156 409.675781 513.15625 410.042969 513.785156 C 410.414062 514.410156 410.722656 515.039062 410.96875 515.667969 C 411.214844 516.300781 411.402344 516.929688 411.523438 517.5625 C 411.648438 518.195312 411.710938 518.828125 411.710938 519.464844 Z M 411.710938 519.464844 " fill-opacity="1" fill-rule="nonzero"/><path fill="#fdedd4" d="M 104.074219 442.054688 L 411.453125 442.054688 L 411.453125 521.742188 L 104.074219 521.742188 Z M 104.074219 442.054688 " fill-opacity="1" fill-rule="nonzero"/><g mask="url(#524e84a289)"><g transform="matrix(1, 0, 0, 1, 103, 441)"><g clip-path="url(#63a86aa7d8)"><g clip-path="url(#88f88e308c)"><path fill="#131313" d="M 308.453125 76.183594 L 308.453125 1.011719 L 1.105469 1.011719 L 1.105469 80.699219 L 1.363281 80.699219 C 6.03125 101.027344 72.976562 117.15625 154.890625 117.15625 C 239.851562 117.15625 308.675781 99.820312 308.675781 78.441406 C 308.6875 77.679688 308.609375 76.925781 308.453125 76.183594 Z M 308.453125 76.183594 " fill-opacity="1" fill-rule="nonzero"/></g></g></g></g><path fill="#fdedd4" d="M 411.675781 442.011719 C 411.675781 463.378906 342.851562 480.726562 257.890625 480.726562 C 212.539062 480.726562 171.78125 475.789062 143.625 467.929688 C 119.042969 461.101562 104.105469 452.011719 104.105469 442.011719 C 104.105469 420.632812 172.933594 403.296875 257.890625 403.296875 C 270.589844 403.296875 282.925781 403.683594 294.722656 404.371094 C 361.894531 408.671875 411.675781 423.867188 411.675781 442.011719 Z M 411.675781 442.011719 " fill-opacity="1" fill-rule="nonzero"/><g mask="url(#50309180d8)"><g transform="matrix(1, 0, 0, 1, 142, 404)"><g clip-path="url(#e1946b7b3c)"><g clip-path="url(#b35b6ff94b)"><path fill="#131313" d="M 269.675781 38.011719 C 269.675781 59.378906 200.851562 76.726562 115.890625 76.726562 C 70.539062 76.726562 29.78125 71.789062 1.625 63.929688 C 56.894531 68.703125 112.902344 69.5 168.222656 64.378906 C 206.765625 60.808594 243.5 47.171875 244.855469 32.40625 C 245.199219 28.71875 241.628906 25.804688 238.574219 23.804688 C 229.359375 17.769531 218.359375 15.199219 207.613281 12.824219 L 152.765625 0.46875 C 219.894531 4.671875 269.675781 19.867188 269.675781 38.011719 Z M 269.675781 38.011719 " fill-opacity="1" fill-rule="nonzero"/></g></g></g></g><g mask="url(#d6f850e44f)"><g transform="matrix(1, 0, 0, 1, 248, 434)"><g clip-path="url(#e076e56b91)"><g clip-path="url(#c212092d67)"><path fill="#131313" d="M 20.871094 5.460938 C 20.871094 5.757812 20.804688 6.050781 20.675781 6.34375 C 20.542969 6.632812 20.351562 6.917969 20.09375 7.191406 C 19.835938 7.464844 19.523438 7.726562 19.148438 7.972656 C 18.777344 8.21875 18.351562 8.445312 17.878906 8.65625 C 17.40625 8.867188 16.886719 9.054688 16.332031 9.21875 C 15.773438 9.382812 15.183594 9.523438 14.5625 9.636719 C 13.945312 9.75 13.304688 9.835938 12.648438 9.890625 C 11.988281 9.949219 11.324219 9.980469 10.65625 9.980469 C 9.984375 9.980469 9.320312 9.949219 8.660156 9.890625 C 8.003906 9.835938 7.363281 9.75 6.746094 9.636719 C 6.125 9.523438 5.535156 9.382812 4.976562 9.21875 C 4.421875 9.054688 3.90625 8.867188 3.429688 8.65625 C 2.957031 8.445312 2.53125 8.21875 2.160156 7.972656 C 1.785156 7.726562 1.472656 7.464844 1.214844 7.191406 C 0.957031 6.917969 0.765625 6.632812 0.632812 6.34375 C 0.503906 6.050781 0.4375 5.757812 0.4375 5.460938 C 0.4375 5.164062 0.503906 4.871094 0.632812 4.582031 C 0.765625 4.289062 0.957031 4.007812 1.214844 3.734375 C 1.472656 3.460938 1.785156 3.199219 2.160156 2.953125 C 2.53125 2.707031 2.957031 2.476562 3.429688 2.269531 C 3.90625 2.058594 4.421875 1.871094 4.976562 1.707031 C 5.535156 1.542969 6.125 1.402344 6.746094 1.289062 C 7.363281 1.175781 8.003906 1.089844 8.660156 1.03125 C 9.320312 0.972656 9.984375 0.945312 10.65625 0.945312 C 11.324219 0.945312 11.988281 0.972656 12.648438 1.03125 C 13.304688 1.089844 13.945312 1.175781 14.5625 1.289062 C 15.183594 1.402344 15.773438 1.542969 16.332031 1.707031 C 16.886719 1.871094 17.40625 2.058594 17.878906 2.269531 C 18.351562 2.476562 18.777344 2.707031 19.148438 2.953125 C 19.523438 3.199219 19.835938 3.460938 20.09375 3.734375 C 20.351562 4.007812 20.542969 4.289062 20.675781 4.582031 C 20.804688 4.871094 20.871094 5.164062 20.871094 5.460938 Z M 20.871094 5.460938 " fill-opacity="1" fill-rule="nonzero"/></g></g></g></g><g clip-path="url(#e26a0b1a92)"><path fill="#ffffff" d="M 298.003906 376.914062 C 292.488281 386.164062 280.796875 389.304688 270.152344 391.078125 C 263.855469 392.195312 257.507812 392.683594 251.117188 392.542969 C 248.121094 392.449219 245.144531 392.164062 242.191406 391.679688 C 221.261719 388.164062 205.90625 369.753906 207.121094 348.566406 C 207.324219 344.847656 208.042969 341.230469 209.269531 337.714844 C 218.230469 312.355469 249.855469 299.300781 255.945312 273.09375 C 257.375 266.972656 257.234375 260.597656 258.007812 254.347656 C 258.785156 248.101562 262.644531 234.734375 265.105469 231.195312 C 270.613281 234.011719 274.988281 239.011719 278.421875 245.058594 C 284.5625 255.90625 287.605469 270.125 288.53125 281.191406 C 289.960938 298.398438 287.863281 316.121094 292.53125 332.8125 C 294.59375 340.199219 297.90625 347.191406 299.820312 354.632812 C 301.734375 362.074219 301.984375 370.324219 298.003906 376.914062 Z M 298.003906 376.914062 " fill-opacity="1" fill-rule="nonzero"/></g><path fill="#d9d9d9" d="M 292.207031 359.007812 C 290.800781 353.429688 288.28125 348.179688 286.734375 342.640625 C 283.238281 330.15625 284.796875 316.832031 283.734375 303.925781 C 282.667969 291.019531 277.699219 272.328125 266.160156 266.414062 C 264.3125 269.070312 261.417969 279.105469 260.835938 283.78125 C 260.257812 288.460938 260.363281 293.257812 259.289062 297.851562 C 254.71875 317.507812 230.996094 327.304688 224.273438 346.328125 C 223.34375 348.964844 222.800781 351.679688 222.648438 354.472656 C 221.734375 370.367188 233.253906 384.183594 248.964844 386.808594 C 255.976562 387.832031 262.96875 387.691406 269.9375 386.390625 C 277.90625 385.054688 286.691406 382.699219 290.832031 375.765625 C 293.777344 370.839844 293.605469 364.578125 292.207031 359.007812 Z M 292.207031 359.007812 " fill-opacity="1" fill-rule="nonzero"/><g mask="url(#bb411589e1)"><g transform="matrix(1, 0, 0, 1, 250, 244)"><g clip-path="url(#9954744654)"><path fill="#131313" d="M 48.003906 132.914062 C 42.488281 142.164062 30.796875 145.304688 20.152344 147.078125 C 13.855469 148.195312 7.507812 148.683594 1.117188 148.542969 C 3.394531 148.339844 5.675781 148.113281 7.957031 147.863281 C 16.816406 146.886719 25.871094 145.507812 33.691406 141.226562 C 41.507812 136.949219 47.992188 129.214844 48.457031 120.3125 C 48.769531 114.289062 46.378906 108.480469 44.414062 102.8125 C 41.035156 93.0625 38.78125 83.058594 37.660156 72.796875 C 36.121094 58.699219 36.753906 44.441406 35.507812 30.320312 C 34.605469 20.308594 32.613281 10.144531 28.464844 1.058594 C 34.605469 11.90625 37.648438 26.125 38.574219 37.191406 C 40.003906 54.398438 37.90625 72.121094 42.574219 88.8125 C 44.636719 96.199219 47.949219 103.191406 49.863281 110.632812 C 51.777344 118.074219 51.984375 126.324219 48.003906 132.914062 Z M 48.003906 132.914062 " fill-opacity="1" fill-rule="nonzero"/></g></g></g><g mask="url(#d1759f0eb8)"><g transform="matrix(1, 0, 0, 1, 211, 248)"><g clip-path="url(#586a9c0897)"><g clip-path="url(#41ca69f48f)"><path fill="#ffffff" d="M 54.300781 18.609375 L 52.011719 1.101562 C 49.859375 17.921875 47.300781 35.578125 36.621094 49.195312 C 28.101562 60.035156 15.113281 67.335938 7.582031 78.8125 C 5.917969 81.355469 4.566406 84.054688 3.523438 86.910156 C 2.480469 89.761719 1.773438 92.699219 1.40625 95.714844 C 1.035156 98.734375 1.015625 101.753906 1.339844 104.773438 C 1.667969 107.796875 2.332031 110.742188 3.335938 113.613281 C 6.636719 122.851562 14.089844 131.96875 26.308594 137.960938 C 28.566406 139.035156 31.964844 139.035156 33.738281 137.324219 C 34.660156 136.417969 35.34375 135.355469 35.785156 134.136719 C 36.230469 132.917969 36.390625 131.667969 36.265625 130.378906 C 35.792969 126.214844 32.824219 122.710938 29.8125 119.625 C 26.800781 116.535156 23.359375 113.613281 21.78125 109.707031 C 19.917969 105.210938 20.703125 100.027344 22.726562 95.609375 C 24.746094 91.1875 27.972656 87.339844 31.148438 83.542969 C 35.65625 78.09375 40.1875 72.617188 44.738281 67.109375 C 48.148438 62.9375 51.578125 58.679688 53.570312 53.765625 C 54.9375 50.152344 55.710938 46.417969 55.890625 42.558594 C 56.375 34.546875 55.34375 26.554688 54.300781 18.609375 Z M 54.300781 18.609375 " fill-opacity="1" fill-rule="nonzero"/></g></g></g></g><path fill="#ffffff" d="M 261.835938 366.472656 L 261.835938 439.601562 C 261.449219 440.484375 256.203125 440.441406 255.472656 439.601562 L 255.472656 366.472656 Z M 261.835938 366.472656 " fill-opacity="1" fill-rule="nonzero"/><g mask="url(#8fb4ad3e9e)"><g transform="matrix(1, 0, 0, 1, 254, 365)"><g clip-path="url(#bcd3fb4bdd)"><path fill="#131313" d="M 7.835938 1.472656 L 7.835938 74.601562 C 7.449219 75.484375 2.203125 75.441406 1.472656 74.601562 L 1.472656 1.472656 Z M 7.835938 1.472656 " fill-opacity="1" fill-rule="nonzero"/></g></g></g><path fill="#ffffff" d="M 263.203125 367.03125 C 263.203125 367.546875 263.171875 368.054688 263.113281 368.558594 C 263.050781 369.0625 262.960938 369.550781 262.839844 370.023438 C 262.71875 370.5 262.570312 370.949219 262.398438 371.375 C 262.222656 371.800781 262.023438 372.199219 261.800781 372.558594 C 261.578125 372.921875 261.335938 373.246094 261.078125 373.53125 C 260.816406 373.816406 260.539062 374.058594 260.25 374.253906 C 259.957031 374.453125 259.660156 374.601562 259.351562 374.699219 C 259.042969 374.800781 258.730469 374.851562 258.417969 374.851562 C 258.105469 374.851562 257.792969 374.800781 257.484375 374.699219 C 257.175781 374.601562 256.875 374.453125 256.585938 374.253906 C 256.296875 374.058594 256.019531 373.816406 255.757812 373.53125 C 255.496094 373.246094 255.257812 372.921875 255.035156 372.558594 C 254.8125 372.199219 254.613281 371.800781 254.4375 371.375 C 254.265625 370.949219 254.117188 370.5 253.996094 370.023438 C 253.875 369.550781 253.785156 369.0625 253.722656 368.558594 C 253.664062 368.054688 253.632812 367.546875 253.632812 367.03125 C 253.632812 366.519531 253.664062 366.011719 253.722656 365.507812 C 253.785156 365.003906 253.875 364.515625 253.996094 364.039062 C 254.117188 363.566406 254.265625 363.113281 254.4375 362.6875 C 254.613281 362.261719 254.8125 361.867188 255.035156 361.503906 C 255.257812 361.140625 255.496094 360.816406 255.757812 360.53125 C 256.019531 360.246094 256.296875 360.003906 256.585938 359.808594 C 256.875 359.613281 257.175781 359.464844 257.484375 359.363281 C 257.792969 359.261719 258.105469 359.214844 258.417969 359.214844 C 258.730469 359.214844 259.042969 359.261719 259.351562 359.363281 C 259.660156 359.464844 259.957031 359.613281 260.25 359.808594 C 260.539062 360.003906 260.816406 360.246094 261.078125 360.53125 C 261.335938 360.816406 261.578125 361.140625 261.800781 361.503906 C 262.023438 361.867188 262.222656 362.261719 262.398438 362.6875 C 262.570312 363.113281 262.71875 363.566406 262.839844 364.039062 C 262.960938 364.515625 263.050781 365.003906 263.113281 365.507812 C 263.171875 366.011719 263.203125 366.519531 263.203125 367.03125 Z M 263.203125 367.03125 " fill-opacity="1" fill-rule="nonzero"/><g mask="url(#3d2fcd8a79)"><g transform="matrix(1, 0, 0, 1, 253, 359)"><g clip-path="url(#316b1757b9)"><g clip-path="url(#5a1b7fbfe5)"><path fill="#131313" d="M 10.203125 8.03125 C 10.203125 8.546875 10.171875 9.054688 10.113281 9.558594 C 10.050781 10.0625 9.960938 10.550781 9.839844 11.023438 C 9.71875 11.5 9.570312 11.949219 9.398438 12.375 C 9.222656 12.800781 9.023438 13.199219 8.800781 13.558594 C 8.578125 13.921875 8.335938 14.246094 8.078125 14.53125 C 7.816406 14.816406 7.539062 15.058594 7.25 15.253906 C 6.957031 15.453125 6.660156 15.601562 6.351562 15.699219 C 6.042969 15.800781 5.730469 15.851562 5.417969 15.851562 C 5.105469 15.851562 4.792969 15.800781 4.484375 15.699219 C 4.175781 15.601562 3.875 15.453125 3.585938 15.253906 C 3.296875 15.058594 3.019531 14.816406 2.757812 14.53125 C 2.496094 14.246094 2.257812 13.921875 2.035156 13.558594 C 1.8125 13.199219 1.613281 12.800781 1.4375 12.375 C 1.265625 11.949219 1.117188 11.5 0.996094 11.023438 C 0.875 10.550781 0.785156 10.0625 0.722656 9.558594 C 0.664062 9.054688 0.632812 8.546875 0.632812 8.03125 C 0.632812 7.519531 0.664062 7.011719 0.722656 6.507812 C 0.785156 6.003906 0.875 5.515625 0.996094 5.039062 C 1.117188 4.566406 1.265625 4.113281 1.4375 3.6875 C 1.613281 3.261719 1.8125 2.867188 2.035156 2.503906 C 2.257812 2.140625 2.496094 1.816406 2.757812 1.53125 C 3.019531 1.246094 3.296875 1.003906 3.585938 0.808594 C 3.875 0.613281 4.175781 0.464844 4.484375 0.363281 C 4.792969 0.261719 5.105469 0.214844 5.417969 0.214844 C 5.730469 0.214844 6.042969 0.261719 6.351562 0.363281 C 6.660156 0.464844 6.957031 0.613281 7.25 0.808594 C 7.539062 1.003906 7.816406 1.246094 8.078125 1.53125 C 8.335938 1.816406 8.578125 2.140625 8.800781 2.503906 C 9.023438 2.867188 9.222656 3.261719 9.398438 3.6875 C 9.570312 4.113281 9.71875 4.566406 9.839844 5.039062 C 9.960938 5.515625 10.050781 6.003906 10.113281 6.507812 C 10.171875 7.011719 10.203125 7.519531 10.203125 8.03125 Z M 10.203125 8.03125 " fill-opacity="1" fill-rule="nonzero"/></g></g></g></g><g clip-path="url(#13da31eece)"><path fill="#ffb357" d="M 699.496094 330.726562 C 695.878906 330.722656 692.269531 330.910156 688.671875 331.289062 C 685.074219 331.667969 681.507812 332.234375 677.96875 332.988281 C 674.429688 333.742188 670.941406 334.675781 667.503906 335.796875 C 664.0625 336.917969 660.691406 338.21875 657.390625 339.695312 C 654.085938 341.171875 650.871094 342.816406 647.742188 344.628906 C 644.613281 346.445312 641.585938 348.417969 638.664062 350.550781 C 635.742188 352.683594 632.941406 354.964844 630.257812 357.394531 C 627.578125 359.820312 625.03125 362.382812 622.621094 365.082031 L 622.621094 338.679688 C 622.621094 338.15625 622.570312 337.636719 622.46875 337.125 C 622.367188 336.613281 622.214844 336.117188 622.015625 335.632812 C 621.816406 335.152344 621.570312 334.695312 621.28125 334.257812 C 620.988281 333.824219 620.660156 333.421875 620.289062 333.054688 C 619.921875 332.683594 619.519531 332.355469 619.085938 332.066406 C 618.652344 331.773438 618.191406 331.53125 617.710938 331.332031 C 617.226562 331.128906 616.730469 330.980469 616.21875 330.878906 C 615.707031 330.777344 615.191406 330.726562 614.667969 330.726562 C 614.144531 330.726562 613.628906 330.777344 613.117188 330.878906 C 612.605469 330.980469 612.105469 331.128906 611.625 331.332031 C 611.140625 331.53125 610.683594 331.773438 610.25 332.066406 C 609.816406 332.355469 609.414062 332.683594 609.042969 333.054688 C 608.675781 333.421875 608.34375 333.824219 608.054688 334.257812 C 607.765625 334.695312 607.519531 335.152344 607.320312 335.632812 C 607.121094 336.117188 606.96875 336.613281 606.867188 337.125 C 606.765625 337.636719 606.714844 338.15625 606.714844 338.679688 L 606.714844 391.695312 C 606.722656 392.214844 606.777344 392.730469 606.882812 393.238281 C 606.992188 393.75 607.144531 394.242188 607.347656 394.722656 C 607.550781 395.203125 607.796875 395.65625 608.085938 396.089844 C 608.378906 396.519531 608.707031 396.921875 609.074219 397.289062 C 609.441406 397.65625 609.84375 397.984375 610.273438 398.277344 C 610.707031 398.566406 611.160156 398.8125 611.640625 399.015625 C 612.121094 399.214844 612.613281 399.371094 613.125 399.476562 C 613.632812 399.585938 614.148438 399.640625 614.667969 399.648438 L 667.683594 399.648438 C 668.207031 399.648438 668.722656 399.597656 669.234375 399.496094 C 669.75 399.394531 670.246094 399.242188 670.726562 399.042969 C 671.210938 398.84375 671.667969 398.597656 672.101562 398.308594 C 672.535156 398.015625 672.9375 397.6875 673.308594 397.316406 C 673.675781 396.949219 674.007812 396.546875 674.296875 396.113281 C 674.585938 395.679688 674.832031 395.222656 675.03125 394.738281 C 675.230469 394.257812 675.382812 393.757812 675.484375 393.246094 C 675.585938 392.734375 675.636719 392.21875 675.636719 391.695312 C 675.636719 391.171875 675.585938 390.65625 675.484375 390.144531 C 675.382812 389.632812 675.230469 389.132812 675.03125 388.652344 C 674.832031 388.167969 674.585938 387.710938 674.296875 387.277344 C 674.007812 386.84375 673.675781 386.441406 673.308594 386.070312 C 672.9375 385.703125 672.535156 385.371094 672.101562 385.082031 C 671.667969 384.792969 671.210938 384.546875 670.726562 384.347656 C 670.246094 384.148438 669.75 383.996094 669.234375 383.894531 C 668.722656 383.792969 668.207031 383.742188 667.683594 383.742188 L 627.921875 383.742188 C 629.246094 381.855469 630.644531 380.023438 632.117188 378.246094 C 633.589844 376.46875 635.128906 374.753906 636.734375 373.101562 C 638.339844 371.445312 640.011719 369.855469 641.742188 368.332031 C 643.476562 366.8125 645.265625 365.359375 647.113281 363.976562 C 648.960938 362.597656 650.859375 361.289062 652.808594 360.058594 C 654.757812 358.828125 656.753906 357.675781 658.796875 356.605469 C 660.839844 355.53125 662.917969 354.539062 665.039062 353.632812 C 667.160156 352.722656 669.3125 351.898438 671.496094 351.160156 C 673.683594 350.421875 675.894531 349.773438 678.128906 349.210938 C 680.367188 348.644531 682.621094 348.171875 684.894531 347.789062 C 687.171875 347.402344 689.457031 347.109375 691.753906 346.902344 C 694.050781 346.699219 696.351562 346.585938 698.660156 346.566406 C 700.964844 346.542969 703.269531 346.613281 705.570312 346.773438 C 707.871094 346.933594 710.164062 347.183594 712.441406 347.523438 C 714.722656 347.867188 716.988281 348.296875 719.234375 348.816406 C 721.480469 349.335938 723.707031 349.945312 725.902344 350.640625 C 728.101562 351.339844 730.269531 352.121094 732.40625 352.988281 C 734.542969 353.855469 736.644531 354.808594 738.707031 355.839844 C 740.769531 356.875 742.785156 357.988281 744.757812 359.179688 C 746.734375 360.375 748.65625 361.644531 750.53125 362.988281 C 752.402344 364.335938 754.21875 365.753906 755.980469 367.242188 C 757.742188 368.730469 759.441406 370.289062 761.082031 371.914062 C 762.71875 373.535156 764.289062 375.222656 765.792969 376.96875 C 767.300781 378.71875 768.730469 380.523438 770.09375 382.382812 C 771.457031 384.246094 772.742188 386.15625 773.953125 388.121094 C 775.164062 390.085938 776.296875 392.09375 777.347656 394.144531 C 778.398438 396.199219 779.367188 398.289062 780.253906 400.417969 C 781.140625 402.546875 781.941406 404.707031 782.65625 406.902344 C 783.371094 409.09375 784 411.3125 784.539062 413.554688 C 785.082031 415.796875 785.53125 418.054688 785.894531 420.332031 C 786.253906 422.613281 786.527344 424.902344 786.707031 427.199219 C 786.886719 429.5 786.976562 431.800781 786.972656 434.109375 C 786.972656 434.632812 787.023438 435.148438 787.125 435.660156 C 787.226562 436.171875 787.378906 436.667969 787.578125 437.152344 C 787.777344 437.632812 788.023438 438.09375 788.3125 438.527344 C 788.605469 438.960938 788.933594 439.363281 789.300781 439.730469 C 789.671875 440.101562 790.074219 440.429688 790.507812 440.722656 C 790.941406 441.011719 791.398438 441.257812 791.882812 441.457031 C 792.363281 441.65625 792.863281 441.808594 793.375 441.910156 C 793.886719 442.011719 794.402344 442.0625 794.925781 442.0625 C 795.449219 442.0625 795.964844 442.011719 796.476562 441.910156 C 796.988281 441.808594 797.488281 441.65625 797.96875 441.457031 C 798.453125 441.257812 798.910156 441.011719 799.34375 440.722656 C 799.777344 440.429688 800.179688 440.101562 800.550781 439.730469 C 800.917969 439.363281 801.25 438.960938 801.539062 438.527344 C 801.828125 438.09375 802.074219 437.632812 802.273438 437.152344 C 802.472656 436.667969 802.625 436.171875 802.726562 435.660156 C 802.828125 435.148438 802.878906 434.632812 802.878906 434.109375 C 802.875 432.417969 802.832031 430.726562 802.75 429.039062 C 802.664062 427.347656 802.539062 425.660156 802.371094 423.980469 C 802.203125 422.296875 801.996094 420.617188 801.746094 418.945312 C 801.496094 417.273438 801.207031 415.605469 800.875 413.945312 C 800.542969 412.289062 800.171875 410.640625 799.757812 409 C 799.347656 407.359375 798.894531 405.726562 798.402344 404.109375 C 797.910156 402.492188 797.378906 400.886719 796.808594 399.292969 C 796.238281 397.703125 795.628906 396.125 794.980469 394.5625 C 794.332031 393 793.648438 391.453125 792.921875 389.925781 C 792.199219 388.398438 791.4375 386.886719 790.640625 385.394531 C 789.84375 383.902344 789.007812 382.433594 788.136719 380.980469 C 787.269531 379.53125 786.363281 378.101562 785.421875 376.695312 C 784.484375 375.289062 783.507812 373.910156 782.5 372.550781 C 781.492188 371.191406 780.453125 369.859375 779.378906 368.550781 C 778.304688 367.242188 777.203125 365.964844 776.066406 364.710938 C 774.929688 363.457031 773.761719 362.234375 772.566406 361.035156 C 771.371094 359.839844 770.148438 358.675781 768.894531 357.539062 C 767.640625 356.402344 766.359375 355.296875 765.050781 354.222656 C 763.746094 353.152344 762.410156 352.109375 761.054688 351.101562 C 759.695312 350.09375 758.3125 349.121094 756.90625 348.179688 C 755.5 347.242188 754.074219 346.335938 752.621094 345.464844 C 751.171875 344.597656 749.699219 343.761719 748.207031 342.964844 C 746.71875 342.164062 745.207031 341.40625 743.679688 340.679688 C 742.148438 339.957031 740.605469 339.269531 739.042969 338.625 C 737.480469 337.976562 735.902344 337.367188 734.308594 336.792969 C 732.71875 336.222656 731.113281 335.691406 729.492188 335.199219 C 727.875 334.707031 726.246094 334.257812 724.605469 333.84375 C 722.964844 333.433594 721.316406 333.058594 719.65625 332.730469 C 718 332.398438 716.332031 332.109375 714.660156 331.859375 C 712.984375 331.609375 711.308594 331.398438 709.625 331.234375 C 707.941406 331.066406 706.253906 330.9375 704.566406 330.855469 C 702.875 330.769531 701.1875 330.726562 699.496094 330.726562 Z M 699.496094 330.726562 " fill-opacity="1" fill-rule="nonzero"/></g><path fill="#ffb357" d="M 784.324219 468.570312 L 731.304688 468.570312 C 730.78125 468.570312 730.265625 468.621094 729.753906 468.722656 C 729.242188 468.824219 728.746094 468.976562 728.261719 469.175781 C 727.78125 469.375 727.320312 469.621094 726.886719 469.910156 C 726.453125 470.199219 726.050781 470.53125 725.683594 470.898438 C 725.3125 471.269531 724.984375 471.671875 724.691406 472.105469 C 724.402344 472.539062 724.15625 472.996094 723.957031 473.480469 C 723.757812 473.960938 723.605469 474.457031 723.503906 474.972656 C 723.402344 475.484375 723.351562 476 723.351562 476.523438 C 723.351562 477.042969 723.402344 477.5625 723.503906 478.074219 C 723.605469 478.585938 723.757812 479.082031 723.957031 479.566406 C 724.15625 480.046875 724.402344 480.507812 724.691406 480.941406 C 724.984375 481.375 725.3125 481.777344 725.683594 482.144531 C 726.050781 482.515625 726.453125 482.84375 726.886719 483.136719 C 727.320312 483.425781 727.78125 483.671875 728.261719 483.871094 C 728.746094 484.070312 729.242188 484.21875 729.753906 484.324219 C 730.265625 484.425781 730.78125 484.476562 731.304688 484.476562 L 771.066406 484.476562 C 769.742188 486.363281 768.34375 488.195312 766.871094 489.96875 C 765.402344 491.746094 763.863281 493.460938 762.257812 495.117188 C 760.648438 496.773438 758.980469 498.359375 757.246094 499.882812 C 755.515625 501.40625 753.726562 502.859375 751.878906 504.238281 C 750.03125 505.621094 748.132812 506.925781 746.179688 508.15625 C 744.230469 509.386719 742.234375 510.539062 740.191406 511.613281 C 738.152344 512.6875 736.070312 513.675781 733.949219 514.585938 C 731.832031 515.496094 729.675781 516.316406 727.492188 517.054688 C 725.308594 517.792969 723.097656 518.445312 720.859375 519.007812 C 718.625 519.570312 716.367188 520.046875 714.09375 520.429688 C 711.820312 520.816406 709.535156 521.109375 707.234375 521.3125 C 704.9375 521.519531 702.636719 521.632812 700.332031 521.652344 C 698.023438 521.675781 695.71875 521.605469 693.417969 521.445312 C 691.117188 521.285156 688.828125 521.035156 686.546875 520.695312 C 684.265625 520.351562 682 519.921875 679.753906 519.402344 C 677.507812 518.878906 675.285156 518.273438 673.085938 517.574219 C 670.886719 516.878906 668.71875 516.097656 666.582031 515.230469 C 664.445312 514.363281 662.347656 513.410156 660.285156 512.378906 C 658.222656 511.34375 656.203125 510.230469 654.230469 509.035156 C 652.257812 507.84375 650.332031 506.574219 648.460938 505.226562 C 646.585938 503.882812 644.769531 502.464844 643.007812 500.976562 C 641.246094 499.484375 639.546875 497.929688 637.910156 496.304688 C 636.273438 494.683594 634.699219 492.996094 633.195312 491.246094 C 631.691406 489.5 630.257812 487.695312 628.894531 485.832031 C 627.535156 483.972656 626.246094 482.058594 625.035156 480.097656 C 623.824219 478.132812 622.695312 476.125 621.644531 474.074219 C 620.589844 472.019531 619.621094 469.929688 618.734375 467.800781 C 617.847656 465.671875 617.046875 463.507812 616.332031 461.316406 C 615.617188 459.125 614.988281 456.90625 614.449219 454.664062 C 613.910156 452.421875 613.457031 450.160156 613.097656 447.882812 C 612.734375 445.605469 612.464844 443.316406 612.285156 441.019531 C 612.105469 438.71875 612.015625 436.414062 612.015625 434.109375 C 612.015625 433.585938 611.964844 433.070312 611.863281 432.558594 C 611.761719 432.046875 611.609375 431.546875 611.410156 431.066406 C 611.210938 430.582031 610.964844 430.125 610.675781 429.691406 C 610.386719 429.257812 610.054688 428.855469 609.6875 428.484375 C 609.316406 428.117188 608.917969 427.785156 608.480469 427.496094 C 608.046875 427.207031 607.589844 426.960938 607.105469 426.761719 C 606.625 426.5625 606.128906 426.410156 605.617188 426.308594 C 605.101562 426.207031 604.585938 426.15625 604.0625 426.15625 C 603.542969 426.15625 603.023438 426.207031 602.511719 426.308594 C 602 426.410156 601.503906 426.5625 601.019531 426.761719 C 600.539062 426.960938 600.078125 427.207031 599.644531 427.496094 C 599.210938 427.785156 598.808594 428.117188 598.441406 428.484375 C 598.070312 428.855469 597.742188 429.257812 597.453125 429.691406 C 597.160156 430.125 596.917969 430.582031 596.714844 431.066406 C 596.515625 431.546875 596.367188 432.046875 596.265625 432.558594 C 596.164062 433.070312 596.113281 433.585938 596.113281 434.109375 C 596.105469 436.707031 596.199219 439.300781 596.390625 441.890625 C 596.582031 444.484375 596.871094 447.0625 597.257812 449.632812 C 597.644531 452.199219 598.125 454.75 598.703125 457.285156 C 599.28125 459.816406 599.957031 462.324219 600.722656 464.804688 C 601.492188 467.289062 602.351562 469.738281 603.304688 472.152344 C 604.253906 474.570312 605.296875 476.949219 606.429688 479.285156 C 607.5625 481.625 608.78125 483.917969 610.085938 486.164062 C 611.390625 488.410156 612.777344 490.605469 614.246094 492.746094 C 615.71875 494.886719 617.265625 496.96875 618.894531 498.996094 C 620.523438 501.019531 622.222656 502.980469 624 504.878906 C 625.773438 506.773438 627.621094 508.601562 629.53125 510.355469 C 631.445312 512.113281 633.421875 513.796875 635.464844 515.40625 C 637.503906 517.011719 639.601562 518.542969 641.757812 519.992188 C 643.914062 521.441406 646.121094 522.808594 648.378906 524.089844 C 650.640625 525.375 652.941406 526.570312 655.292969 527.679688 C 657.640625 528.789062 660.027344 529.808594 662.453125 530.734375 C 664.882812 531.664062 667.339844 532.5 669.828125 533.246094 C 672.316406 533.988281 674.832031 534.636719 677.367188 535.191406 C 679.90625 535.746094 682.460938 536.203125 685.035156 536.5625 C 687.609375 536.925781 690.191406 537.1875 692.78125 537.355469 C 695.375 537.519531 697.96875 537.589844 700.566406 537.558594 C 703.164062 537.53125 705.757812 537.402344 708.347656 537.175781 C 710.933594 536.953125 713.511719 536.628906 716.074219 536.210938 C 718.636719 535.789062 721.183594 535.273438 723.707031 534.664062 C 726.230469 534.050781 728.730469 533.34375 731.203125 532.542969 C 733.671875 531.746094 736.109375 530.851562 738.515625 529.867188 C 740.917969 528.882812 743.28125 527.808594 745.605469 526.648438 C 747.929688 525.484375 750.207031 524.238281 752.433594 522.902344 C 754.664062 521.566406 756.839844 520.152344 758.960938 518.652344 C 761.082031 517.15625 763.144531 515.578125 765.148438 513.925781 C 767.152344 512.269531 769.089844 510.542969 770.964844 508.742188 C 772.835938 506.941406 774.636719 505.074219 776.371094 503.136719 L 776.371094 529.539062 C 776.371094 530.0625 776.421875 530.578125 776.523438 531.089844 C 776.625 531.601562 776.777344 532.101562 776.976562 532.582031 C 777.175781 533.066406 777.421875 533.523438 777.710938 533.957031 C 778 534.390625 778.328125 534.792969 778.699219 535.164062 C 779.070312 535.53125 779.46875 535.863281 779.90625 536.152344 C 780.339844 536.441406 780.796875 536.6875 781.277344 536.886719 C 781.761719 537.085938 782.257812 537.238281 782.769531 537.339844 C 783.285156 537.441406 783.800781 537.492188 784.324219 537.492188 C 784.84375 537.492188 785.363281 537.441406 785.875 537.339844 C 786.386719 537.238281 786.882812 537.085938 787.367188 536.886719 C 787.847656 536.6875 788.304688 536.441406 788.742188 536.152344 C 789.175781 535.863281 789.578125 535.53125 789.945312 535.164062 C 790.316406 534.792969 790.644531 534.390625 790.933594 533.957031 C 791.226562 533.523438 791.46875 533.066406 791.667969 532.582031 C 791.871094 532.101562 792.019531 531.601562 792.121094 531.089844 C 792.222656 530.578125 792.273438 530.0625 792.273438 529.539062 L 792.273438 476.523438 C 792.269531 476.003906 792.210938 475.488281 792.105469 474.976562 C 792 474.46875 791.84375 473.976562 791.640625 473.496094 C 791.441406 473.015625 791.195312 472.5625 790.902344 472.128906 C 790.613281 471.699219 790.285156 471.296875 789.914062 470.929688 C 789.546875 470.5625 789.148438 470.234375 788.714844 469.941406 C 788.285156 469.652344 787.828125 469.40625 787.351562 469.203125 C 786.871094 469 786.375 468.847656 785.867188 468.738281 C 785.359375 468.632812 784.84375 468.578125 784.324219 468.570312 Z M 784.324219 468.570312 " fill-opacity="1" fill-rule="nonzero"/></svg>